<?xml version="1.0" ?><svg id="Layer_1" style="enable-background:new 0 0 512 512;" version="1.1" viewBox="0 0 512 512" xml:space="preserve" xmlns="http://www.w3.org/2000/svg" xmlns:xlink="http://www.w3.org/1999/xlink"><style type="text/css">
	.st0{fill:#6EB3DD;}
	.st1{fill:#FFFFFF;}
	.st2{fill:#010101;}
	.st3{fill:#C01F3F;}
	.st4{fill:#262D65;}
	.st5{fill:#BD1F34;}
	.st6{fill:#F3EDEB;}
	.st7{fill:#F5D02C;}
	.st8{fill:#33783B;}
	.st9{fill:none;}
	.st10{fill:#2E6331;}
	.st11{fill:#A98035;}
	.st12{fill:#294921;}
</style><g id="XMLID_1_"><rect class="st0" height="298.7" id="XMLID_277_" width="512" y="106.7"/><path class="st1" d="M336.9,201.6v63.6c1.3,39.2,21,53.2,48.5,64.8c31.5-13.9,47.5-31,47.5-64.8v-63.6H336.9z" id="XMLID_276_"/><g><path class="st2" d="M385.3,330.5l-0.2-0.1c-29.2-12.2-47.5-27.4-48.8-65.2v-64.1h97v64.1c0,31.7-13.4,50-47.8,65.2L385.3,330.5    L385.3,330.5z M337.4,202.1v63.1c1.2,37.3,18.5,51.8,47.9,64.2c33.8-15,47-33,47-64.2v-63.1H337.4L337.4,202.1z"/></g><path class="st3" d="M336.8,264.1c0,0,0.1,8.2,2.3,18.5l91.7-0.1c2-9.2,2.3-18.4,2.3-18.4H336.8z" id="XMLID_273_"/><path class="st3" d="M375.6,232.2l0,92.9c4.5,2.3,10.3,4.8,10.3,4.8s3.9-2.5,8.1-4.6l0-93.1H375.6z" id="XMLID_272_"/><rect class="st4" height="128.3" id="XMLID_271_" width="256.5" y="106.7"/><polygon class="st1" id="XMLID_270_" points="0,106.7 0,121 227.9,234.9 256.5,234.9 256.5,220.6 28.7,106.7  "/><polygon class="st1" id="XMLID_269_" points="256.5,106.7 256.5,121 28.7,234.9 0,234.9 0,220.6 227.9,106.7  "/><rect class="st1" height="128.3" id="XMLID_268_" width="42.8" x="106.9" y="106.7"/><rect class="st1" height="42.8" id="XMLID_267_" width="256.5" y="149.4"/><rect class="st5" height="25.7" id="XMLID_266_" width="256.5" y="158"/><rect class="st5" height="128.3" id="XMLID_265_" width="25.7" x="115.4" y="106.7"/><polygon class="st3" id="XMLID_264_" points="0,234.9 85.5,192.2 104.6,192.2 19.1,234.9  "/><polygon class="st3" id="XMLID_263_" points="0,106.7 85.5,149.4 66.4,149.4 0,116.2  "/><polygon class="st3" id="XMLID_262_" points="151.9,149.4 237.4,106.7 256.5,106.7 171,149.4  "/><polygon class="st3" id="XMLID_261_" points="256.5,234.9 171,192.2 190.2,192.2 256.5,225.4  "/><rect class="st3" height="34.3" id="XMLID_260_" width="96.2" x="336.7" y="201.4"/><path class="st6" d="M342,217.4L342,217.4c1.7,0,3.1,1.8,3.1,4v0.1c0,2.2-1.4,4-3,4h0c-1.7,0-3-1.8-3-4v-0.1   C338.9,219.2,340.3,217.4,342,217.4L342,217.4z" id="XMLID_259_"/><g><path class="st2" d="M342,225.5L342,225.5c-1.8,0-3.1-1.8-3.1-4c0-2.3,1.4-4.1,3.1-4.1c1.8,0,3.2,1.8,3.2,4    C345.1,223.7,343.7,225.5,342,225.5L342,225.5z M342,217.5c-1.7,0-3,1.8-3,3.9c0,2.2,1.3,4,3,4h0c1.7,0,3-1.8,3-3.9    C345,219.2,343.7,217.5,342,217.5L342,217.5z"/></g><path class="st7" d="M412.4,215.3c0,0,5.5-0.4,7.5-2.3c1.9-1.9-1.3-5.3,0.8-5.7c0.8-0.1,2,0.2,2.9,1.1   c-0.1-0.7-0.7-1.1-0.9-1.5c-0.8-0.6-1.5-0.5-2.6-0.5c-0.8,0.1-0.9-0.1-2.1-1.4c-0.6-0.6-0.6-2.1-0.1-3.1c-1.5,0.9-1.2,2.3-1,2.5   c0.3,1.3,0.7,1.7,0.7,2.3c-0.4-0.2-1.2-1.7-5.1-2c-3.9-0.2-13.9,2.4-18.4,2.4c-4.5,0-11-1.6-11-1.6s1.7-1.1-0.3-1.6   c-2-0.5-6.4,1.7-7.7,0.5c-0.9-1.1-0.6-0.9-0.7-1.4c-0.3,0.2-0.6,0.9-0.1,1.8c0.5,0.9,0.8,0.6,0.7,0.6c-0.1,0-1.6,0-1.7,0.5   c-0.1,0.4-0.3,0.8,0.4,2.1c0.3-1.3-0.8-1.5,1.5-1.6c2.3-0.1,3.9,0.8,5.8,1.1c1.9,0.3,1.9-0.7,2-0.7c0.1,0.1,6,1.4,11.4,1.1   c5.4-0.3,14.1-2.8,18.1-2.3c4,0.5,6.6,3,6.7,5.3c-0.1,1.4-1.8,2.1-3.2,2.4c-1.7,0.2-5.5,0.6-5.5,0.6L412.4,215.3z" id="XMLID_256_"/><g><path class="st2" d="M412.4,215.4L412.4,215.4l-2.2-1.3c0-0.1,3.9-0.4,5.6-0.7c0.7-0.1,3.1-0.7,3.1-2.3c-0.1-2.2-2.6-4.7-6.7-5.3    c-2.3-0.3-6.2,0.4-10,1.1c-2.8,0.5-5.8,1.1-8.1,1.2c-5.4,0.3-11.1-1-11.4-1.1c0.7,0.1,6.3,1.3,11.4,1c2.3-0.1,5.2-0.7,8.1-1.2    c3.8-0.7,7.8-1.4,10.1-1.1c4.3,0.6,6.7,3.2,6.8,5.4c-0.1,1.7-2.5,2.3-3.2,2.4c-1.7,0.2-5.5,0.6-5.5,0.6L412.4,215.4    c0.3-0.1,5.6-0.5,7.5-2.3c1-1,0.6-2.3,0.3-3.5c-0.2-0.8-0.4-1.5-0.1-1.9c0.1-0.2,0.3-0.3,0.6-0.4c0.7,0,2,0.1,3,1.1    c-0.2-0.4-0.4-0.7-0.7-1c-0.9-0.9-1.6-1-2.4-1l-0.8,0v0c-0.5,0-0.8-0.3-1.5-1.1c-1-1-0.9-2.5-0.5-3.5c-1.3,1-1.1,2.2-0.9,2.6    c0.2,0.6,0.3,1,0.4,1.3c0.1,0.4,0.2,0.6,0.2,0.9c-0.9-0.7-2-1.7-5.2-1.9c-2.5,0.2-6.1,0.6-9.4,1.2c-3.4,0.6-6.8,1.2-9,1.2    c-4.5,0-11-1.6-11-1.6c0-0.1,0.7-0.6,0.6-1c0-0.3-0.4-0.5-0.9-0.6c-0.8-0.2-2.2,0.1-3.6,0.4c-1.8,0.4-3.5,0.7-4.1,0.1    c-0.7-0.8-0.7-0.9-0.7-1.1c-0.3-0.1-0.5,0.6,0,1.5c0.2,0.4,0.4,0.6,0.5,0.6c-0.9,0.1-1.4,0.3-1.5,0.5c-0.2,0.4-0.3,0.8,0.4,2    c0-0.4,0-0.7-0.1-0.9c0-0.1,0.1-0.2,0.1-0.3c0,0.5,0,0.8,0,1.2c-0.8-1.3-0.7-1.7-0.5-2.1c0.1-0.4,1-0.5,1.6-0.5    c-0.2,0-0.4-0.2-0.5-0.6c-0.5-1-0.3-1.7,0.1-1.9c0.1,0.5,0.1,0.6,0.8,1.4c0.6,0.6,2.3,0.3,4.1-0.1c1.3-0.3,2.8-0.6,3.6-0.4    c0.6,0.2,1,0.4,1,0.7c0.1,0.5-0.6,1-0.7,1c0,0,0,0,0,0c0.3,0,6.6,1.5,11,1.5c2.2,0,5.6-0.6,9-1.2c3.3-0.6,6.8-1.2,8.9-1.2    c3.7,0.2,4.9,1.2,5.4,1.7c0.2,0,0.1-0.3,0-0.6c-0.1-0.3-0.3-0.7-0.4-1.3c-0.2-0.4-0.4-1.7,1.1-2.6c-0.4,1.1-0.4,2.5,0.2,3.1    c1.1,1.1,1.4,1.4,1.8,1.4l0.8,0c0.8,0,1.5,0,2.1,0.5c0.6,0.8,0.8,1.1,0.9,1.6c-1-1-2.3-1.1-2.7-1.1c-0.5,0.1-0.7,0.2-0.8,0.3    c-0.2,0.4-0.1,1,0.1,1.8c0.3,1.1,0.7,2.6-0.3,3.6C418,215,412.4,215.4,412.4,215.4L412.4,215.4L412.4,215.4z M381.4,207.6    c-0.2,0-0.4,0-0.7-0.1c-0.7-0.1-1.4-0.3-2-0.5c-1-0.3-2.1-0.6-3.3-0.6c-1,0-1.4,0.1-1.7,0.2c0.2-0.2,0.6-0.2,1.2-0.2    c1.6-0.1,2.8,0.3,3.8,0.6c0.7,0.2,1.3,0.4,2,0.5c1.5,0.2,1.8-0.4,1.9-0.6c0,0,0,0,0.1,0C382.7,207.2,382.4,207.6,381.4,207.6    L381.4,207.6z"/></g><path class="st7" d="M406.2,216.7c-0.1,0-3.7,0.1-4.8,2c-1.1,2-1.6,3.8-1.5,3.8c0.1,0,2.4-1.6,2.4-1.6   s-1.7,3.2-0.8,6.1c0.9,2.9-2.5,2.7-4.5,2.8c-0.9-0.9-3.7-2.3-4.7-2.6c-0.6-0.3-1.8-0.3-3.1,1.5c-0.8,1.1,1.1-1.1,3-0.9   c0.2,0.3,0.3,0.5,0.4,1.1c-1-0.1-2-1.5-3.2,1.4c1.2-1,1.4-1,2-1.1c0.8-0.1,0.7,0.5,0.7,0.5c-0.1,0-0.5,0.1-1,0.7   c-0.3,0.4-0.9,1.4-0.8,1.4c0.1,0,0.5-0.5,1.2-0.9c0.4-0.3,0.8-0.3,2,0.1c6.5,2,10,0.5,10.4-0.3c0.2-0.3-3.8-10,6.8-12.5   C410.5,218.2,406.2,216.8,406.2,216.7L406.2,216.7z" id="XMLID_253_"/><g><path class="st2" d="M399.4,232.1L399.4,232.1c-1.8,0-3.8-0.3-6-1c-1.2-0.4-1.5-0.5-1.9-0.1c-0.3,0.2-0.6,0.5-0.8,0.6    c-0.1,0-0.1,0-0.2,0.1c0.4-0.4,0.6-0.6,0.9-0.8c0.4-0.4,0.7-0.4,2,0.1c5.3,1.6,9.9,0.6,10.4-0.2c-1.6-7,0.7-11,6.8-12.5    c-0.1,0-0.8-0.2-1.6-0.5c-2.7-0.9-2.8-1-2.8-1.1c0,0-3.6,0.1-4.7,2.1c-1,1.9-1.5,3.7-1.5,3.8c0.1,0,1.5-1,2.4-1.6    c0,0.1-1.7,3.3-0.8,6.1c0.2,0.8,0.2,1.4-0.1,1.8c-0.7,0.9-2.4,1-3.8,1c0,0-0.1,0-0.1-0.1c1.8-0.1,3.3-0.2,3.9-1    c0.3-0.4,0.3-1,0.1-1.7c-0.9-2.9,0.8-6.1,0.8-6.2c-0.8,0.6-2.3,1.7-2.4,1.7c-0.1-0.1,0.4-2,1.5-3.9c1.1-2,4.8-2.1,4.8-2.1    c0.1,0.1,1.7,0.6,2.8,1c1,0.3,1.6,0.6,1.6,0.6c-6,1.5-8.4,5.5-6.9,11.9c0.1,0.4,0.1,0.6,0.1,0.6    C403.6,231.3,402.2,232.1,399.4,232.1L399.4,232.1z M389.4,230.5c0.7-1.9,1.6-2.1,2.5-1.7c0.2,0.1,0.5,0.2,0.7,0.2    c-0.1-0.4-0.1-0.6-0.2-0.8c0.2,0.2,0.3,0.5,0.3,0.9c-0.3,0-0.5-0.1-0.7-0.2C391.3,228.6,390.6,227.6,389.4,230.5    c1.1-1,1.3-1.1,1.9-1.1c0.5-0.1,0.8,0.2,0.8,0.4c0,0,0,0-0.1,0l-0.5-0.4C390.7,229.5,390.6,229.5,389.4,230.5L389.4,230.5z     M389.5,228.9c0-0.1,0.1-0.2,0.1-0.3c0.7-0.3,1.5-0.8,2.4-0.8c0,0,0.1,0,0.1,0.1C391,228,390,228.6,389.5,228.9L389.5,228.9z     M395.4,228.7c-1.2-0.6-2.5-1.2-3.1-1.4c-0.3-0.2-1-0.4-2,0.3c0.9-0.8,1.7-0.6,2.1-0.4C393,227.4,394.3,228,395.4,228.7    L395.4,228.7z"/></g><path class="st7" d="M360.9,227.3c4.3,3.9,33.5-4.2,37.2-7c2.1-1.6,5.8-2.8,5.8,2.7c0.9-3.7,0.9-4.7,0.9-4.6   c0.1,0.1,1.5,1.4,2.8,6c0.3-4.1-0.5-6.5-0.1-6.1c0.3-0.3,0.3,2,2.8,5.4c-0.6-2.6-0.7-3.8-0.7-3.8s4.7,4.9,7.4,5.6   c2.7,0.7,6.5-1.4,7.7-0.2c1.2,1.2,3.2,3.3,3.1,5c-0.1,1.7-4.4,0.3-4.9,1.6c-0.5,1.4,0.3,1.4,0.3,1.4s0.4,1,0.7,1.9   c0.2-0.6-0.2-1.9,0.6-2c0.6,0.1,0.6,1.2,0.8,1.8c0.2-0.7,0-2,0.6-2c0.6-0.1,0.7,1.1,1.2,1.9V233c1.8-0.6,3.4-0.7,3.6-2   c0.2-1.3-2.8-4.2-3.5-6c-0.7-1.9,0.6-2.6-0.8-3.7c-1.3-1-6.5,1.6-8.8,0.6c-2.4-1-1.4-8.3-10.3-9.9c-8.9-1.6-33,8.5-37.2,8.9   c-4.3,0.4-9.4-1.4-9.4-1.4L360.9,227.3z" id="XMLID_248_"/><g><path class="st2" d="M424.2,235.3l-0.3-0.9l0.3,0.6c0-0.2,0-0.4,0-0.7c0-0.5,0-1.2,0.6-1.2    c0.5,0.1,0.6,0.7,0.7,1.3c0.1-1,0.2-1.6,0.6-1.6c0,0,0,0,0,0c0.5,0,0.6,0.5,0.8,1c0.1,0.3,0.2,0.6,0.4,0.9l-0.1-1.9l1.2-0.4    c1.3-0.3,2.2-0.6,2.4-1.6c0.1-0.7-0.8-2-1.7-3.3c-0.7-1-1.4-2-1.7-2.8c-0.3-0.8-0.2-1.5-0.2-2c0.1-0.6,0.1-1.1-0.6-1.7    c-0.6-0.4-2.1-0.1-3.8,0.3c-1.9,0.4-3.9,0.8-5,0.3c-0.8-0.3-1.2-1.3-1.7-2.6c-1.1-2.6-2.6-6.2-8.6-7.3c-6.1-1.1-19.1,3.2-28.3,6.3    c-4.2,1.4-7.6,2.5-8.9,2.6c-4.2,0.5-9.4-1.4-9.5-1.4l0.1,7.8c0.7,0.7,2.3,1,4.7,1c9.7,0,29.5-5.8,32.4-8c0.5-0.4,1.9-1.4,3.3-1.4    c1.2,0,2.6,0.7,2.6,4.1c0.7-3.3,0.8-4.4,0.9-4.6c0.5,0.4,1.7,1.9,2.8,6c0.1-2.3-0.1-4.1-0.2-5.2c-0.1-0.7-0.1-0.9,0-1    c0.3,0,0.4,0.2,0.5,0.6c0.3,0.9,0.9,2.6,2.5,4.8c-0.6-2.6-0.8-3.8-0.8-3.8c0.1,0,4.8,4.9,7.5,5.6c1.1,0.3,2.8,0,4.2-0.2    c1.6-0.3,3-0.5,3.5,0.1c1.1,1.1,3.2,3.3,3.2,5.1c0,0.9-1.3,1-2.5,1c-1.1,0-2.1,0-2.4,0.6c-0.2,0.5-0.2,0.8-0.1,0.9    c-0.1-0.3-0.1-0.6,0-1c0.2-0.7,1.4-0.7,2.4-0.7c1.2,0,2.4,0,2.4-0.9c0.1-1.7-2.1-3.9-3.1-5c-0.5-0.5-1.9-0.4-3.4-0.1    c-1.4,0.3-3.1,0.5-4.3,0.2c-2.6-0.6-7-5.2-7.4-5.6c0.1,0.2,0.3,1.4,0.8,3.8c-1.7-2.1-2.3-3.9-2.6-4.7c-0.1-0.3-0.2-0.6-0.2-0.6    c-0.2,0-0.1,0.5-0.1,0.9c0.1,1.1,0.3,2.8,0.1,5.2c-1.2-4.1-2.5-5.6-2.8-6c0.1,0.2-0.1,1.3-0.9,4.6c-0.1-4.2-2.8-5-5.8-2.7    c-2.9,2.2-22.8,8-32.5,8c0,0,0,0,0,0c-2.4,0-4-0.4-4.8-1.1l-0.1-7.9h0c0.2,0,5.3,1.8,9.5,1.4c1.3-0.1,4.7-1.2,8.9-2.6    c9.2-3.1,22.3-7.4,28.3-6.3c6,1.1,7.5,4.7,8.6,7.4c0.5,1.3,0.9,2.2,1.7,2.6c1.1,0.5,3.1,0.1,5-0.3c1.7-0.4,3.2-0.7,3.8-0.2    c0.8,0.6,0.7,1.1,0.6,1.7c-0.1,0.5-0.1,1.1,0.2,1.9c0.3,0.8,1,1.8,1.7,2.7c1,1.3,1.9,2.6,1.7,3.3c-0.2,1-1.2,1.3-2.5,1.7l-1.2,0.3    l0,1.8c-0.2-0.3-0.4-0.6-0.5-0.9c-0.4-1.2-1.1-0.8-1.2,0.2c0,0.3,0,0.6-0.1,0.8c-0.3-1.1-0.4-1.7-0.8-1.8    c-0.5,0.1-0.5,0.6-0.5,1.1c0,0.3,0,0.6-0.1,0.8L424.2,235.3L424.2,235.3z" id="XMLID_247_"/></g><path class="st7" d="M355.4,224.5c0,0-4.6,5.8-7.7,5.6c-3.1-0.2-5.6-4-6.3-3.8c-0.7,0.3-0.8-0.3-1.1-1.4   c-0.3-1.1,0.3-1.6,0.3-1.5c0.2,0,0.3,1.7,0.5,1.9c0.1,0.1-0.5-2.1,0.4-2.1c0.3,0,0.3,1.6,0.6,2.3c0.1-0.1-0.3-2.4,0.1-2.4   c0.4,0,0.6,2.3,1.2,3c0.9,1.2,2.3,1.9,4.2,2.3c2-0.3,6.6-5.5,6.9-5.3L355.4,224.5z" id="XMLID_246_"/><g><path class="st2" d="M347.8,230.2L347.8,230.2c-2.1-0.1-3.8-1.7-5-2.8c-0.5-0.4-0.9-0.8-1.1-0.9    c0.4,0.1,0.8,0.5,1.2,0.9C344,228.4,345.7,229.9,347.8,230.2L347.8,230.2L347.8,230.2c3-0.1,7.5-5.7,7.6-5.7l-1-1.1    c-0.2,0-0.9,0.7-1.8,1.5c-1.6,1.5-3.9,3.6-5.1,3.8c-2.1-0.5-3.4-1.3-4.2-2.4c-0.3-0.4-0.5-1.2-0.7-1.9c-0.1-0.6-0.3-1.2-0.5-1.2    c-0.2,0.2-0.1,1.1-0.1,1.7c0.1,0.5,0.1,0.7,0,0.7c-0.2-0.3-0.3-0.9-0.3-1.3c0-0.3-0.1-0.6-0.1-0.8c0.1,0.2,0.2,0.5,0.2,0.8    c0,0.4,0.1,0.9,0.2,1.2c0-0.1,0-0.3-0.1-0.5c-0.1-0.8-0.1-1.5,0-1.7c0.3-0.1,0.4,0.4,0.6,1.2c0.2,0.7,0.4,1.5,0.7,1.8    c0.8,1.1,2.1,1.8,4.2,2.3c1.2-0.2,3.4-2.2,5.1-3.8c1.1-1,1.6-1.5,1.8-1.5l1,1.1C355.4,224.6,350.8,230.2,347.8,230.2L347.8,230.2z    " id="XMLID_245_"/></g><path class="st7" d="M355.5,221.3c0,0-3.8-6.1-6.9-6.6c-3.1-0.5-6.1,2.3-6.7,1.9c-0.6-0.4-0.9,0.1-1.3,1   c-0.4,0.9,0.1,1.4,0.1,1.3c0.2,0,0.6-1.4,0.7-1.5s-0.8,1.7,0.2,1.9c0.3,0.1,0.5-1.3,0.9-1.9c0.1,0.1-0.6,2-0.2,2.1   c0.4,0.1,0.9-1.9,1.6-2.4c1-0.9,2.5-1.2,4.4-1.2c1.9,0.7,5.7,6.2,6.1,6.1L355.5,221.3z" id="XMLID_244_"/><g><path class="st2" d="M354.4,222.1c-0.2,0-0.7-0.6-1.6-1.7c-1.4-1.7-3.3-4-4.5-4.4c-2.1,0-3.4,0.4-4.4,1.1    c-0.4,0.2-0.7,0.9-0.9,1.4c-0.2,0.5-0.4,1-0.7,1c-0.3-0.3-0.1-1,0.1-1.6c-0.4,1-0.5,1.4-0.7,1.4c-0.1-0.1-0.1-0.2-0.2-0.2    c0.3,0.1,0.5-0.3,0.6-0.7c0.1-0.4,0.2-0.8,0.4-1.1c-0.2,1.1-0.4,1.8-0.2,2.1c0.2,0,0.4-0.4,0.7-0.9c0.3-0.6,0.6-1.2,0.9-1.5    c0.9-0.8,2.3-1.2,4.4-1.2c1.2,0.4,3.1,2.8,4.6,4.4C353.6,221.1,354.2,222,354.4,222.1l1.1-0.8c0,0-3.8-6-6.8-6.6    c-1.9-0.3-3.8,0.7-5.1,1.4c-0.6,0.3-1.1,0.6-1.4,0.6c-0.9-0.1-1.1,0.2-1.4,0.9c-0.3,0.7,0,1.3,0,1.3c0.1,0,0.2-0.5,0.3-0.8    c0.2-0.4,0.3-0.7,0.3-0.7c-0.1,0.4-0.2,0.8-0.2,1.1c0-0.3,0.1-0.7,0.1-0.9c-0.4,1.1-0.5,1.3-0.6,1.3c-0.2-0.2-0.4-0.7-0.1-1.4    c0.3-0.7,0.5-1.1,0.9-1.1c0.8,0.2,1.3-0.1,1.9-0.4c1.3-0.7,3.2-1.7,5.2-1.4c3.1,0.6,6.8,6.6,6.9,6.6L354.4,222.1L354.4,222.1z" id="XMLID_243_"/></g><path class="st7" d="M353.6,219.4l-4.2,2.2l3.1,0.8l-2.2,2.7l3.1-1.1l-0.2,3.7l1.8-2.4l1.2,3.3l1.3-2.5l1.5,2.7   l0.6-2.6l1.8,2.6l0.6-3.6l2.2,2.2l-0.3-3.7l2.7,0.9l-1.7-2.9c0,0,2.9-0.2,2.8-0.2c-0.2,0-2.2-1.9-4-2.4L353.6,219.4z" id="XMLID_242_"/><g><path class="st2" d="M361.4,229l-1.9-2.7l-0.6,2.6l-1.6-2.7l-1.2,2.5l-1.3-3.3l-1.7,2.4l0.2-3.7l-3.1,1.1l2.2-2.8    l-3.1-0.8l4.2-2.3l10.1-0.1c1.3,0.4,2.8,1.5,3.5,2l0.5,0.3c-1.3-0.9-2.7-1.9-4-2.3l-10.1,0.1l-4.2,2.2l3.1,0.8l-2.2,2.8l3.1-1.2    l-0.2,3.7l1.7-2.4l1.2,3.3l1.2-2.5l1.6,2.7l0.6-2.6l1.8,2.6l0.6-3.5l2.3,2.2l-0.4-3.7l2.7,0.9l-1.7-2.8c0-0.1,2.7-0.2,2.8-0.2l0,0    c0,0,0,0-2.8,0.2l1.7,2.8l-2.7-0.9l0.4,3.7l-2.3-2.2L361.4,229L361.4,229z" id="XMLID_241_"/></g><path class="st7" d="M355.8,218.4l-2.3,1.3l1.7,0.5l-1.2,1.5l1.7-0.6l-0.1,2.1l1-1.4l0.6,1.9l0.7-1.4l0.8,1.5   l0.3-1.5l1,1.5l0.3-2l1.2,1.3l-0.2-2.1l1.5,0.5l-0.9-1.6c0,0,1.6-0.1,1.5-0.1c-0.1,0-1.2-1.1-2.2-1.4L355.8,218.4z" id="XMLID_240_"/><g><path class="st2" d="M360.1,223.9l-1-1.6l-0.3,1.5l-0.9-1.5l-0.6,1.4l-0.7-1.9l-0.9,1.4l0.1-2.1l-1.7,0.7l1.2-1.6    l-1.7-0.4l2.3-1.3l5.5,0c0.7,0.2,1.5,0.8,1.9,1.2c0,0,0.1,0.1,0.1,0.1c-0.7-0.5-1.4-1-2-1.2l-5.5,0l-2.3,1.3l1.7,0.4l-1.2,1.6    l1.7-0.7l-0.1,2.1l0.9-1.4l0.7,1.9l0.6-1.4l0.9,1.5l0.3-1.5l1,1.4l0.3-1.9l1.3,1.2l-0.2-2.1l1.5,0.5l-0.9-1.6c0,0,1.1-0.1,1.4-0.1    c-0.1,0.1-0.4,0.1-1.4,0.2l0.9,1.6l-1.5-0.5l0.2,2.1l-1.3-1.2L360.1,223.9L360.1,223.9z" id="XMLID_239_"/></g><path class="st7" d="M357,212.4c0,0-1.2-1-1.7,0c-0.5,1,1,0.6,1,0.8c0,0.2-1,1.4-1,2.7c0,1.4,0.8,3.7,0.8,4   c0,0.3,0.3,1.3,1.4,1.6c1.1,0.3,1.5-1.1,1.7-1.3c0.2-0.2,1.7,0.3,2.3-1.2c0.6-1.4,0.6-4.1,0.6-4.1s0.9,0.8,0.9-0.8c0-1.5-1,0-1,0   s0.2-1.6-2.3-2.4C357.3,211.1,357.1,212.6,357,212.4L357,212.4z" id="XMLID_238_"/><g><path class="st2" d="M357.9,221.6l-0.3,0c-1.1-0.3-1.4-1.3-1.4-1.7c0-0.1-0.1-0.5-0.2-0.9    c-0.2-0.9-0.6-2.2-0.6-3.1c0-0.6,0.2-1.2,0.4-1.6c-0.2,0.5-0.4,1.1-0.4,1.6c0,0.9,0.3,2.2,0.6,3.1c0.1,0.5,0.2,0.8,0.2,0.9    c0,0.4,0.4,1.3,1.4,1.6L357.9,221.6c0.6-0.1,0.9-0.7,1.2-1.1l0.6-0.4c0.5,0,1.5,0,1.9-1.1c0.5-1.4,0.6-4,0.6-4.1    c0.9,0.1,0.9-0.3,0.9-0.8c0-0.3,0-0.6-0.2-0.6c-0.2,0-0.6,0.5-0.7,0.7c-0.1,0,0.1-1.6-2.3-2.4c-1.7-0.5-2.4,0.2-2.6,0.5    c0,0-0.1,0-0.1,0c0.2-0.4,1-1.1,2.7-0.6c2.2,0.7,2.3,2.1,2.3,2.4c0.1-0.3,1-1.1,1,0c0,0.9-0.3,1-0.6,1c-0.4,0-0.4,2.5-0.9,3.9    c-0.4,1.1-1.4,1.1-1.9,1.2l-0.6,0.3C358.9,221,358.5,221.6,357.9,221.6L357.9,221.6z" id="XMLID_237_"/></g><path class="st7" d="M356.7,212.2c-0.3-1-1.2-4.7-1.2-4.7l2,1.4c-0.7-0.3-1.3-0.4-1.2-0.4c0.1,0,0.9,1.8,0.9,1.8   c0.8-0.1,1.6,0.3,2.6,0.7c0,0,0.8-1.5,0.7-1.5c-0.1,0-0.5-0.2-0.5-0.2l1.8-1.4l-0.6,1.9l-0.4,0l-0.7,1.4c0.8,0.2,1.3,0.4,2.1,1.3   c0.7-0.2,1.3-0.8,1.7-1.3c-0.7-0.3-1-0.5-0.9-0.5c0.1,0,2.7,0.2,2.7,0.2s-2.5,2.7-4,3.6C360.4,213.6,356.9,212.5,356.7,212.2   L356.7,212.2z" id="XMLID_236_"/><g><path class="st2" d="M361.9,214.3L361.9,214.3c-0.6-0.2-1.4-0.6-2.3-0.9c-1.8-0.6-2.9-1.1-3-1.3c-0.3-1-1.2-4.7-1.2-4.7l2.1,1.3    l-1-0.3c0,0,0.3,0.7,0.6,1.2c-0.4-0.5-0.7-1.2-0.8-1.3l1.2,0.3l-2.1-1.3c0.1,0.2,1,3.7,1.3,4.6c0.1,0.2,1.6,0.7,2.9,1.2    C360.5,213.7,361.3,214,361.9,214.3c1.4-1.1,3.9-3.6,4-3.7c-0.1,0-2.4-0.1-2.7-0.1c0.1,0,0.3,0.2,0.9,0.4    c-0.6,0.8-1.1,1.2-1.7,1.4c-0.9-0.9-1.3-1-2.1-1.3l1.6-3.3l0,0l0,0l-0.5,1.9l-1.1,1.4c0.8,0.2,1.2,0.4,2.1,1.2    c0.5-0.2,1.1-0.6,1.6-1.3c-0.1,0-0.9-0.3-0.9-0.5c0.1-0.1,2.8,0.1,2.8,0.1C365.9,210.7,363.4,213.3,361.9,214.3L361.9,214.3    L361.9,214.3z M359.9,210.9l-0.7-0.2c-0.6-0.2-1.2-0.4-1.7-0.4c0,0,0,0-0.1-0.1c0.6-0.1,1.2,0.2,1.8,0.4L359.9,210.9    c0.2-0.5,0.5-1.1,0.6-1.4C360.5,209.7,360.3,210.1,359.9,210.9L359.9,210.9z"/></g><path class="st2" d="M358,214.9L358,214.9c0.5,0.2,0.6,0.4,0.4,0.4h0c-0.2,0-0.8-0.2-1.2-0.5l0,0   c-0.5-0.2-0.6-0.4-0.4-0.4h0C357,214.5,357.5,214.7,358,214.9L358,214.9z" id="XMLID_233_"/><path class="st2" d="M360.3,215.9L360.3,215.9c0.5,0.2,0.6,0.4,0.4,0.4h0c-0.2,0-0.8-0.2-1.2-0.5l0,0   c-0.5-0.2-0.6-0.4-0.4-0.4h0C359.3,215.5,359.9,215.7,360.3,215.9L360.3,215.9z" id="XMLID_232_"/><path class="st2" d="M358.8,218.7L358.8,218.7c0.9,0.3,1.3,0.6,0.8,0.5l0,0c-0.4,0-1.5-0.3-2.4-0.6l0,0   c-0.9-0.3-1.2-0.6-0.8-0.5h0C356.9,218.1,357.9,218.4,358.8,218.7L358.8,218.7z" id="XMLID_231_"/><path class="st2" d="M358.7,217.4L358.7,217.4c0.4,0.2,0.6,0.3,0.4,0.3h0c-0.2,0-0.7-0.2-1.1-0.3l0,0   c-0.4-0.2-0.6-0.3-0.4-0.3h0C357.8,217.1,358.3,217.2,358.7,217.4L358.7,217.4z" id="XMLID_230_"/><path class="st2" d="M358.1,217.7L358.1,217.7c0.1-0.4,0.2-0.5,0.3-0.4v0c0,0.2-0.1,0.6-0.2,0.9l0,0   c-0.1,0.4-0.2,0.5-0.2,0.4v0C357.9,218.5,358,218.1,358.1,217.7L358.1,217.7z" id="XMLID_229_"/><polygon class="st8" id="XMLID_228_" points="344,287.5 342.1,284.2 344.8,287.4 344.9,288.8  "/><g><path class="st2" d="M345,288.9l-1-1.3l-1.9-3.3l2.8,3.2L345,288.9L345,288.9z M342.1,284.2l2.8,4.4l-0.1-1.2L342.1,284.2    L342.1,284.2z"/></g><polygon class="st8" id="XMLID_225_" points="344.5,287.9 344.8,285.5 345.7,288.4 344.9,288.8  "/><g><polygon class="st2" id="XMLID_224_" points="344.9,288.9 344.5,287.9 344.8,285.5 345.7,288.4 344.9,288.9   "/></g><polygon class="st8" id="XMLID_223_" points="343.9,288.7 340.7,287 343.3,287.8 345,288.8  "/><g><path class="st2" d="M345,288.9l-1.2-0.1l-3.2-1.7l2.7,0.8L345,288.9L345,288.9L345,288.9z M340.7,287.1l3.2,1.6l1,0.1l-1.6-0.9    L340.7,287.1L340.7,287.1z"/></g><polygon class="st8" id="XMLID_220_" points="344.8,289.7 340,288.3 343.7,288.5 345,288.7  "/><g><path class="st2" d="M344.8,289.8L344.8,289.8l-4.9-1.4l5.1,0.3L344.8,289.8L344.8,289.8z M340,288.4l4.8,1.3l0.2-1l-1.3-0.2    L340,288.4L340,288.4z"/></g><polygon class="st8" id="XMLID_217_" points="345.1,288.1 348,287.7 347,289.5 344.8,288.7  "/><g><polygon class="st2" id="XMLID_216_" points="347,289.6 344.7,288.8 345,288.1 348,287.6 347,289.6   "/></g><polygon class="st8" id="XMLID_215_" points="346.7,289.1 350.5,290.7 347.4,290.2 344.7,288.6  "/><g><path class="st2" d="M350.5,290.7l-3.2-0.5l-2.7-1.6l2.1,0.4L350.5,290.7L350.5,290.7L350.5,290.7z M344.7,288.7l2.7,1.5l2.9,0.4    l-3.5-1.4L344.7,288.7L344.7,288.7z"/></g><polygon class="st8" id="XMLID_212_" points="347.3,289.9 351.3,292.2 347.7,290.9 344.7,288.6  "/><g><path class="st2" d="M351.3,292.2l-3.6-1.3l-3-2.3L351.3,292.2L351.3,292.2L351.3,292.2z M344.7,288.6l3,2.2l3.2,1.2L344.7,288.6    L344.7,288.6z"/></g><polygon class="st8" id="XMLID_209_" points="347.3,290.7 349.6,294.2 346,290.3 344.9,288.7  "/><g><path class="st2" d="M349.6,294.2l-4.8-5.5l2.5,2L349.6,294.2L349.6,294.2L349.6,294.2z M344.8,288.7l1.2,1.6l3.3,3.6l-2.1-3.1    L344.8,288.7L344.8,288.7z"/></g><polygon class="st8" id="XMLID_206_" points="346.7,290.8 346.8,293 345,289.8 344.8,288.6  "/><g><path class="st2" d="M346.7,293l-1.8-3.3l-0.2-1.1l1.9,2.1L346.7,293L346.7,293L346.7,293z M344.8,288.7l0.2,1.1l1.7,3.1l-0.1-2.1    L344.8,288.7L344.8,288.7z"/></g><polygon class="st8" id="XMLID_203_" points="345.8,290.1 344.1,291.5 344.1,289 344.9,288.8  "/><g><polygon class="st2" id="XMLID_202_" points="344,291.5 344.1,289 344.9,288.8 345.8,290.1 344,291.5   "/></g><polygon class="st8" id="XMLID_201_" points="343.6,287.5 342.3,285.6 344,287.4 344.9,288.7  "/><g><polygon class="st2" id="XMLID_200_" points="344.9,288.8 343.6,287.5 342.3,285.6 344.1,287.4 344.9,288.7 344.9,288.8   "/></g><polygon class="st8" id="XMLID_199_" points="344.5,288.3 343.2,285.9 345.1,288.5 345.3,289.2  "/><g><polygon class="st2" id="XMLID_198_" points="345.3,289.2 344.5,288.3 343.2,285.9 345.4,289.2 345.3,289.2   "/></g><polygon class="st8" id="XMLID_197_" points="344.6,289 341.2,287.5 344.1,288.4 345.3,289  "/><g><polygon class="st2" id="XMLID_196_" points="345.3,289.1 344.6,289 341.2,287.6 345.3,289 345.3,289.1   "/></g><polygon class="st8" id="XMLID_195_" points="345.5,288.8 348.6,289.7 346.2,289.3 345,288.9  "/><g><polygon class="st2" id="XMLID_194_" points="348.6,289.7 345,288.9 348.2,289.6 348,289.6 348.6,289.7 348.6,289.7   "/></g><polygon class="st8" id="XMLID_193_" points="345.6,289.6 344.7,290.2 345.2,289.3 345.1,288.8  "/><g><polygon class="st9" id="XMLID_192_" points="345.6,289.6 344.7,290.2 345.2,289.3 345.1,288.8   "/></g><polygon class="st8" id="XMLID_191_" points="346.9,290.2 348.9,292.6 347.2,290.9 345.2,288.9  "/><g><path class="st2" d="M348.9,292.7l-3.7-3.7l1.8,1.2L348.9,292.7L348.9,292.7L348.9,292.7z M345.2,289l3.2,3l-1.4-1.8L345.2,289    L345.2,289z"/></g><polygon class="st8" id="XMLID_188_" points="346.4,289.3 347,288.7 347.2,289.9 345.3,289.1  "/><g><polygon class="st9" id="XMLID_187_" points="346.4,289.3 347,288.7 347.2,289.9 345.3,289.1   "/></g><polygon class="st8" id="XMLID_186_" points="344.3,287.9 343.5,285.4 344.8,288 344.9,288.8  "/><g><polygon class="st2" id="XMLID_185_" points="344.9,288.8 344.3,287.9 343.4,285.4 345,288.8 344.9,288.8   "/></g><path class="st1" d="M353.7,293.5c0.5-0.3,3.8-8,19.9-6.9c-9.1,3.8-14.8,11.9-16.1,12.2   C356.4,299.2,354.2,294.7,353.7,293.5L353.7,293.5z" id="XMLID_184_"/><g><path class="st2" d="M357.3,298.9c-1.3,0-3.7-5.4-3.7-5.5c3.8-5.4,10-7.7,20-7c-6.3,2.8-10.9,7.5-13.7,10.2c-1.2,1.2-2,2-2.5,2.2    L357.3,298.9L357.3,298.9z M370.5,286.6c-7.9,0-13.4,2.2-16.5,6.6c0.5,2,2.4,5.6,3.3,5.6v0.1l0.1-0.1c0.4-0.1,1.2-0.9,2.4-2.1    c2.8-2.8,7.4-7.5,13.7-10.1C372.5,286.6,371.4,286.6,370.5,286.6L370.5,286.6z"/></g><path class="st1" d="M375.2,289.7c-2.5,1.1-3.7,1.6-5,1.8c0.6,0.4,2.1,0.1,3.7,0.7c-1.4,0-4.1,1.5-5.2,1.5   c0.8,0.6,3.5,0,4,0.2c-1.5,0.1-3.8,1.6-5.3,1.6c-0.7,0.7,3.4-0.5,5.1,0.8c-1.7-0.1-5,1.2-6.8,0.9c1.4,1.1,3.8-0.1,5.8,1   c-0.6,0.1-5.3,0.8-7,0.5c1,0.7,4,0.6,4.7,1.1c-1.2-0.2-4.6,0.7-5.7,0.3c1,1,4.2,0.4,4.7,1c-2,0.9-5.1,0.2-6.6,0.4   c1,0.6,1.7,1.2,2.6,1.7c1.2,1.1,5.1,4.4,7.4,5.3c-2.5-0.4-3.4-0.5-5.1-0.7l3.7,5.3c-1.6-1.1-4.3-3.2-6.1-4.3c-4-2.6-7-2.2-9.8-4.4   c-3.9-5.1-6.1-11.1-6.3-12.7c-0.2-1.6-0.4-4.5-4-3c3.5-0.6,1-4.3,4.6-4.3c2.2,0,1.9,2.1,2.7,3.5c0.5,1,4.3,4.5,5,4.7   C363.4,287.4,369,286.8,375.2,289.7L375.2,289.7z" id="XMLID_181_"/><g><path class="st2" d="M370.3,313.5l-1.4-1c-1.5-1.1-3.4-2.5-4.7-3.3c-2-1.3-3.8-1.9-5.3-2.4    c-1.6-0.5-3-0.9-4.4-2.1c-4-5.2-6.2-11.2-6.4-12.8c-0.2-1.7-0.6-3.8-2.8-3.2c0,0,0.1-0.1,0.1-0.1c0,0,0,0,0.1-0.1    c0.6-0.6,0.8-1.3,1-2c0.3-1,0.6-2.1,2.5-2.1c1.6,0,2,1.1,2.3,2.2c0.1,0.5,0.3,0.9,0.5,1.3c0.5,1,4.3,4.5,5,4.7    c6.6-5.3,12.1-6.3,18.7-3.2c-2.4,1.3-3.7,1.8-5,2c0.3-0.1,0.7,0,1.3,0c0.7,0.1,1.5,0.1,2.4,0.5c-0.8,0.2-1.9,0.7-2.9,1.1    c-0.9,0.3-1.7,0.6-2.2,0.7c0.3,0,0.7,0.1,1.3,0.1c0.5,0,1,0,1.4-0.1c0.4,0,0.7-0.1,0.9-0.1c0,0-0.1,0.1-0.1,0.1    c0.1,0,0.3,0,0.4-0.1c-0.2,0.1-0.4,0.2-0.6,0.2c-0.5,0.3-1.2,0.6-1.8,0.8c-1,0.4-1.9,0.8-2.7,0.8l-0.2-0.2c0.8,0,1.9-0.5,2.9-0.9    c0.5-0.2,1-0.4,1.4-0.6c0,0,0,0-0.1,0c-1.2,0.1-2.5,0.1-2.9-0.2c0.6-0.2,1.4-0.5,2.3-0.9c1.1-0.4,2.2-0.8,3-0.9    c-0.9-0.1-1.7-0.2-2.4-0.2c-0.6-0.1-1.1-0.1-1.4-0.3c1.3-0.4,2.5-1,5-2c-6.5-2.5-11.8-1.9-18.5,3.4c-0.9-0.2-4.7-3.8-5.2-4.7    c-0.2-0.4-0.4-0.9-0.5-1.4c-0.3-1.1-0.6-2.1-2.1-2.1c-1.8,0-2,0.9-2.3,1.9c-0.2,0.6-0.3,1.3-0.9,1.8c2-0.5,2.4,1.9,2.6,3.3    c0.2,1.8,2.4,7.8,6.3,12.9c1.4,1.1,2.7,1.5,4.3,2c1.6,0.5,3.4,1,5.4,2.4c1.4,0.8,3.2,2.2,4.8,3.3l0.8,0.6l-3.3-4.7l0.8-0.1    c1.3,0.1,2.2,0.2,4.4,0.6c-2.3-0.7-6.1-3.9-7.5-5.2l-1-0.7c-0.5-0.3-1-0.7-1.6-1.1c0.6-0.6,1.3-0.3,2.1-0.2c1.6,0.1,3.4,0,4.5-0.4    c-0.3,0-1-0.1-1.8-0.1c-1.1-0.1-2.4-0.1-3-0.7c0.3-0.1,0.5-0.1,0.8-0.1c0.6,0,1.5-0.1,2.3-0.2c0.8-0.1,1.6-0.2,2.2-0.2    c0.1,0-0.9-0.2-1.8-0.3c-1-0.1-2.1-0.3-2.6-0.6c0.4-0.1,0.8-0.1,1.3-0.1h0c2,0,5-0.4,5.6-0.5c-0.8-0.3-1.7-0.3-2.6-0.3l-1.1,0    c-0.9,0-1.6-0.1-2.1-0.5l0.7-0.2c0.9,0,2-0.2,3.1-0.5c1.1-0.2,2.1-0.4,2.8-0.4c-0.4-0.2-1.3-0.4-2.6-0.4l-1.9,0.1l-0.2-0.2    l2.1-0.1c1.4,0,2.3,0.2,2.9,0.7c-1,0.2-2,0.4-3.1,0.6c-1.4,0.3-2.8,0.6-3.8,0.4c0.6,0.2,1.3,0.3,2.1,0.3l1.1,0    c0.9,0,1.9,0.1,2.7,0.6c-1,0.4-5.4,1-7.1,0.7c0.6,0.1,1.6,0.2,2.6,0.4c1,0.1,1.9,0.3,2.3,0.6c-1.1,0.2-1.9,0.3-2.7,0.4    c-1.3,0.2-2.5,0.3-3.1,0.1c0.7,0.3,1.9,0.4,3,0.5c0.9,0,1.6,0.1,1.9,0.4c-1.1,0.8-2.9,0.7-4.6,0.6c-0.8,0-1.5-0.1-2,0    c0.6,0.1,1.1,0.5,1.6,0.8l1,0.7c1.4,1.3,5.1,4.4,7.4,5.3c-2.2-0.2-3.2-0.2-4.4-0.4l-0.7-0.1l3.8,5.1L370.3,313.5L370.3,313.5z" id="XMLID_180_"/></g><path class="st10" d="M396.5,317.9c-0.1-0.8-0.2-1.3,0.2-2.3c0.5-0.8,0.8-1.4,1.8-2.2c1.1-0.4,1.4,0,2.8-1.5   c0.5-1,1.1-1.7,1.5-2.8c0.9-1.5,1.2-2.3,2-3.5c1-1.2,1.8-2.3,2.3-3.3c0.6-1.2,1.2-2,2-3c0.4-1.1,1.1-2,2-3c0.7-1.4,2-3.1,2.6-4.3   c1-1.3,1.4-1.9,2.3-3.3c0.8-0.6,2.1-1.9,3.2-2.3c1.5-0.7,2.3-1.4,3.3-0.3c0.6,0.7,1.8,1.9,1,2.8c-0.4,0.5-1.1,0.6-1.9,0.2   c-0.8-0.6-1.2-2.4-2.3-1c-0.8,1-1.2,1.9-2.3,3c-0.6,0.9-1,1.6-1.5,3c-0.7,0.9-1.2,1.8-1.8,3.3c-0.7,0.7-1.3,2-1.7,3   c-0.7,0.8-1.2,1.7-1.7,3c-1.1,1.2-1.5,2.2-2.3,3c-0.5,1.3-1.4,2.5-2,3.3c-0.5,0.9-1,1.9-1.5,3c-0.9,1.1-1,1.3-2.3,3   c-1.1,1.7-0.8,1.5-2.5,3.4C398.7,319.2,397.7,319.3,396.5,317.9L396.5,317.9z" id="XMLID_179_"/><g><path class="st2" d="M398.6,319.2c-0.7,0-1.4-0.4-2.1-1.2c-0.2-0.9-0.2-1.3,0.1-2.4l0.4-0.6c0.4-0.6,0.7-1.1,1.5-1.7    c0.3-0.1,0.6-0.2,0.8-0.2c0.6-0.1,1-0.2,2.1-1.3c0.2-0.4,0.4-0.8,0.7-1.2c0.3-0.5,0.6-1,0.8-1.6c0.5-0.8,0.8-1.3,1-1.9    c0.3-0.5,0.6-1,0.9-1.6c1-1.2,1.8-2.3,2.3-3.3c0.6-1.1,1.1-1.9,2-3c0.4-1.2,1.2-2.1,2-3c0.4-0.7,0.9-1.6,1.4-2.3    c0.5-0.7,0.9-1.4,1.2-1.9c1-1.3,1.4-1.9,2.3-3.3l0.8-0.6c0.7-0.6,1.7-1.4,2.4-1.7l0.6-0.3c1.1-0.6,1.9-0.8,2.7,0    c0.8,0.9,1.8,2,1,2.8c-0.4,0.5-1.2,0.6-2,0.2c-0.3-0.2-0.5-0.5-0.7-0.8c-0.5-0.6-0.9-1.1-1.6-0.3l-0.7,0.9c-0.5,0.6-0.9,1.3-1.7,2    c-0.5,0.9-0.9,1.6-1.4,2.9c-0.7,0.9-1.2,1.9-1.8,3.3c-0.7,0.7-1.3,1.9-1.7,3c-0.7,0.8-1.2,1.7-1.7,3c-0.6,0.6-0.9,1.1-1.3,1.6    c-0.4,0.5-0.7,1-1.1,1.3c-0.7,1.6-1.7,2.9-2,3.3c-0.5,0.9-1,1.9-1.4,2.9c-0.5,0.6-0.7,0.9-1,1.3c-0.3,0.4-0.6,0.9-1.3,1.7    l-0.7,1.1c-0.4,0.6-0.6,0.9-1.8,2.3C399.4,319,399,319.2,398.6,319.2L398.6,319.2z M421.6,285.7c-0.4,0-0.9,0.2-1.5,0.6l-0.6,0.3    c-0.8,0.3-1.7,1.1-2.4,1.7l-0.8,0.6c-0.9,1.4-1.3,1.9-2.3,3.3c-0.3,0.6-0.7,1.2-1.2,1.9c-0.5,0.8-1.1,1.6-1.4,2.3    c-1,1.1-1.7,1.9-2,2.9c-1,1.1-1.5,1.8-2,3c-0.6,0.9-1.4,2.1-2.3,3.3c-0.4,0.6-0.6,1.1-0.9,1.6c-0.3,0.5-0.6,1.1-1,1.9    c-0.2,0.6-0.5,1.1-0.8,1.6c-0.2,0.4-0.5,0.8-0.7,1.2c-1.1,1.1-1.5,1.2-2.1,1.3c-0.2,0-0.5,0.1-0.7,0.2c-0.7,0.6-1.1,1.1-1.4,1.7    l-0.4,0.6c-0.3,1-0.3,1.4-0.2,2.2c1.1,1.3,2.3,1.3,3.1,1c1.2-1.3,1.4-1.6,1.8-2.3l0.7-1.1c0.7-0.8,1-1.3,1.3-1.7    c0.3-0.4,0.5-0.7,1-1.3c0.4-1,0.9-2,1.4-2.9c0.3-0.4,1.4-1.7,2-3.3c0.4-0.4,0.7-0.8,1.1-1.3c0.3-0.5,0.7-1,1.3-1.6    c0.5-1.3,1-2.1,1.7-3c0.4-1,1.1-2.3,1.8-3c0.5-1.3,1-2.3,1.7-3.3c0.5-1.3,0.9-2,1.5-3c0.8-0.8,1.2-1.4,1.6-2l0.7-0.9    c0.7-0.9,1.3-0.4,1.8,0.3c0.2,0.3,0.4,0.5,0.6,0.7c0.7,0.4,1.4,0.3,1.8-0.2c0.7-0.8-0.2-1.8-0.9-2.5    C422.3,285.9,422,285.7,421.6,285.7L421.6,285.7z"/></g><path class="st7" d="M410.6,305.2L410.6,305.2c0.5,0.5-0.6,2.2-2.4,4l0,0.1c-1.7,1.8-3.5,2.8-4,2.4l0,0   c-0.4-0.4,0.6-2.2,2.4-4l0.1,0C408.4,305.9,410.2,304.8,410.6,305.2L410.6,305.2z" id="XMLID_176_"/><g><path class="st2" d="M404.5,311.8l-0.3-0.1c0-0.1,0-0.2,0-0.4c0,0,0,0,0,0l0.3,0.3c0.7,0,2.2-1,3.6-2.5c1.3-1.3,2.2-2.6,2.4-3.3    c-0.2,0.9-1.2,2.2-2.3,3.3C406.8,310.8,405.3,311.8,404.5,311.8L404.5,311.8z M404.2,311.1c0.2-1,1.1-2.3,2.3-3.5    c1.5-1.5,3.1-2.6,3.8-2.6c0.1,0.1,0.1,0.1,0.2,0.2c-1,0-2.4,1-3.8,2.4C405.4,309,404.4,310.4,404.2,311.1L404.2,311.1z"/></g><path class="st7" d="M401.1,298.7L401.1,298.7c0.6,0.2,0.3,2.3-0.6,4.6l0,0.1c-0.9,2.3-2.2,4-2.7,3.7l0,0   c-0.6-0.2-0.3-2.3,0.7-4.6l0-0.1C399.3,300.2,400.5,298.5,401.1,298.7L401.1,298.7z" id="XMLID_173_"/><g><path class="st2" d="M397.8,307.2l-0.1,0c-0.7-0.3-0.2-2.6,0.6-4.7c0.9-2.3,2.1-3.9,2.7-3.9c0.8,0.3,0.4,2.6-0.5,4.7    C399.6,305.6,398.4,307.2,397.8,307.2L397.8,307.2z M401,298.8c-0.6,0-1.7,1.4-2.7,3.7c-1,2.5-1.2,4.4-0.7,4.6l0.1,0    c0.5,0,1.6-1.4,2.6-3.7C401.4,300.9,401.5,299,401,298.8C401,298.8,401,298.8,401,298.8L401,298.8z"/></g><path class="st7" d="M402.6,299.8L402.6,299.8c0.6,0.3,0.2,2.3-0.8,4.6l0,0.1c-1,2.3-2.3,3.9-2.9,3.6l0,0   c-0.6-0.3-0.2-2.3,0.8-4.6l0-0.1C400.8,301.2,402,299.6,402.6,299.8L402.6,299.8z" id="XMLID_170_"/><g><path class="st2" d="M399.1,308.2l-0.2,0c-0.7-0.3-0.2-2.6,0.8-4.7c1-2.2,2.2-3.8,2.8-3.8c0.6,0.2,0.5,1,0.4,1.6    c-0.2,0.9-0.5,2-1,3.1C400.9,306.7,399.7,308.2,399.1,308.2L399.1,308.2z M402.6,299.9c-0.6,0-1.8,1.4-2.8,3.6    c-1.1,2.5-1.3,4.3-0.9,4.6l0.1,0c0.5,0,1.7-1.4,2.7-3.6c0.5-1.2,0.9-2.2,1-3.1C402.9,300.6,402.8,300,402.6,299.9    C402.6,299.9,402.6,299.9,402.6,299.9L402.6,299.9z"/></g><path class="st7" d="M406.1,302.4L406.1,302.4c0.5,0.4-0.3,2.3-1.7,4.3l0,0.1c-1.5,2-3,3.4-3.6,3l0,0   c-0.5-0.4,0.3-2.3,1.7-4.3l0-0.1C404,303.3,405.6,302,406.1,302.4L406.1,302.4z" id="XMLID_167_"/><g><path class="st2" d="M401,309.9l-0.2-0.1c0-0.1-0.1-0.3-0.1-0.4c0,0,0,0.1,0,0.1l0.3,0.3c0.6,0,2.1-1.3,3.3-3    c1.3-1.8,1.9-3.2,1.9-3.9c0.1,0.9-0.7,2.5-1.8,3.9C403.1,308.6,401.7,309.9,401,309.9L401,309.9z M400.7,309.3    c0-1,0.7-2.4,1.8-3.9c1.3-1.8,2.8-3.1,3.4-3.1c0.1,0,0.1,0.1,0.2,0.2c0,0,0,0-0.1,0c-0.8,0-2.2,1.3-3.4,3    C401.5,307,400.7,308.5,400.7,309.3L400.7,309.3z"/></g><path class="st7" d="M413.4,307L413.4,307c0.4,0.5-0.8,2.2-2.7,3.8l-0.1,0c-1.9,1.6-3.8,2.5-4.2,2.1l0,0   c-0.4-0.5,0.8-2.2,2.7-3.8l0.1,0C411.1,307.4,413,306.5,413.4,307L413.4,307z" id="XMLID_164_"/><g><path class="st2" d="M406.8,313.1l-0.4-0.1c-0.5-0.6,1-2.4,2.7-3.9c1.6-1.4,3.2-2.3,3.9-2.3    c0.1,0.1,0.1,0.1,0.2,0.2c-1,0-2.5,0.8-4,2.1c-2.1,1.8-3.1,3.3-2.7,3.7l0.3,0.1c0.7,0,2.3-0.9,3.8-2.2c1.3-1.2,2.2-2.2,2.6-2.9    c-0.3,0.9-1.3,2-2.5,3C409.1,312.2,407.6,313.1,406.8,313.1L406.8,313.1z" id="XMLID_163_"/></g><path class="st7" d="M412.1,306.2L412.1,306.2c0.5,0.5-0.6,2.2-2.4,4l-0.1,0.1c-1.8,1.7-3.6,2.8-4,2.3l0,0   c-0.4-0.4,0.6-2.2,2.4-4l0-0.1C409.9,306.8,411.7,305.8,412.1,306.2L412.1,306.2z" id="XMLID_162_"/><g><path class="st2" d="M405.9,312.8l-0.3-0.1c0-0.1,0-0.3,0-0.4c0,0,0,0,0,0.1l0.3,0.3c0.7,0,2.2-1,3.7-2.4    c1.5-1.5,2.5-3,2.5-3.7c-1-0.3-2.6,0.7-4,2.1c-1.4,1.3-2.4,2.7-2.5,3.5c0.2-1,1.1-2.3,2.4-3.5c1.5-1.5,3.1-2.5,3.8-2.5l0.5,0.5    c0,0.7-1,2.3-2.5,3.7C408.2,311.7,406.7,312.8,405.9,312.8L405.9,312.8z" id="XMLID_161_"/></g><path class="st7" d="M408.4,304.3L408.4,304.3c0.5,0.4-0.3,2.3-1.7,4.3l0,0.1c-1.5,2-3,3.4-3.5,3l0,0   c-0.5-0.4,0.3-2.3,1.7-4.3l0-0.1C406.3,305.3,407.9,304,408.4,304.3L408.4,304.3z" id="XMLID_160_"/><g><path class="st2" d="M403.3,311.8l-0.2-0.1c-0.6-0.5,0.4-2.6,1.7-4.4c1.3-1.8,2.8-3.1,3.4-3.1    c0.1,0.1,0.1,0.2,0.1,0.4c-0.9-0.2-2.3,1.2-3.4,2.8c-1.6,2.2-2.2,4-1.8,4.3l0.2,0.1c0.6,0,2-1.3,3.3-3c0.8-1.1,1.4-2.2,1.7-3    c-0.2,0.9-0.8,2-1.6,3C405.4,310.5,404,311.8,403.3,311.8L403.3,311.8z" id="XMLID_159_"/></g><path class="st7" d="M407.4,303.2L407.4,303.2c0.5,0.4-0.3,2.3-1.7,4.3l0,0.1c-1.5,2-3,3.4-3.6,3l0,0   c-0.5-0.4,0.3-2.3,1.7-4.3l0-0.1C405.3,304.1,406.8,302.8,407.4,303.2L407.4,303.2z" id="XMLID_158_"/><g><path class="st2" d="M402.3,310.7l-0.2-0.1c0-0.1-0.1-0.3-0.1-0.4c0,0,0,0,0,0.1l0.3,0.3c0.6,0,2-1.3,3.3-3c0.8-1.1,1.4-2.2,1.7-3    c-0.2,0.9-0.8,2-1.6,3C404.4,309.4,402.9,310.7,402.3,310.7L402.3,310.7z M401.9,310c0-1,0.7-2.4,1.8-3.9c1.3-1.8,2.8-3.1,3.4-3.1    c0.1,0.1,0.1,0.2,0.1,0.4c-1.1-0.2-2.3,1.2-3.4,2.8C402.7,307.7,402,309.3,401.9,310L401.9,310z"/></g><path class="st7" d="M409.4,287.4L409.4,287.4c0.5,0.4-0.3,2.3-1.7,4.3l0,0.1c-1.5,2-3,3.4-3.5,3l0,0   c-0.5-0.4,0.3-2.3,1.7-4.3l0-0.1C407.3,288.4,408.9,287,409.4,287.4L409.4,287.4z" id="XMLID_155_"/><g><path class="st2" d="M404.3,294.9l-0.2-0.1c0-0.1-0.1-0.2-0.1-0.3l0,0l0.3,0.3c0.6,0,2-1.3,3.3-3c1.3-1.8,2-3.4,1.9-4    c0.2,0.9-0.7,2.6-1.8,4C406.4,293.6,405,294.9,404.3,294.9L404.3,294.9z M404,294.2c0.1-1,0.8-2.4,1.8-3.8    c1.3-1.8,2.8-3.1,3.4-3.1c0.1,0.1,0.2,0.1,0.2,0.2c0,0,0,0-0.1,0c-0.8,0-2.2,1.3-3.4,3C404.8,291.9,404.1,293.4,404,294.2    L404,294.2z"/></g><path class="st7" d="M410.8,288.3L410.8,288.3c0.5,0.4-0.3,2.3-1.7,4.3l0,0.1c-1.5,2-3,3.4-3.5,3l0,0   c-0.5-0.4,0.3-2.3,1.7-4.3l0-0.1C408.7,289.3,410.3,287.9,410.8,288.3L410.8,288.3z" id="XMLID_152_"/><g><path class="st2" d="M405.7,295.8l-0.2-0.1c-0.6-0.5,0.4-2.6,1.7-4.4c1.3-1.8,2.8-3.1,3.4-3.1    c0.1,0.1,0.1,0.2,0.1,0.4c-1,0-2.3,1.2-3.4,2.8c-1.6,2.2-2.2,4-1.8,4.3l0.2,0.1c0.6,0,2-1.3,3.3-3c0.8-1.1,1.4-2.2,1.7-3    c-0.2,0.9-0.8,2-1.6,3C407.8,294.5,406.4,295.8,405.7,295.8L405.7,295.8z" id="XMLID_151_"/></g><path class="st7" d="M412.2,289.3L412.2,289.3c0.5,0.4-0.3,2.3-1.7,4.3l0,0.1c-1.5,2-3,3.4-3.5,3l0,0   c-0.5-0.4,0.3-2.3,1.7-4.3l0-0.1C410.2,290.3,411.7,289,412.2,289.3L412.2,289.3z" id="XMLID_150_"/><g><path class="st2" d="M407.2,296.8l-0.2-0.1c-0.6-0.5,0.4-2.6,1.7-4.4c1.3-1.8,2.8-3.1,3.4-3.1    c0.1,0.1,0.1,0.2,0.1,0.4c-0.9,0-2.3,1.1-3.4,2.8c-1.6,2.2-2.2,4-1.8,4.3l0.2,0.1c0.6,0,2-1.3,3.3-3c0.8-1.1,1.4-2.2,1.7-3    c-0.2,0.9-0.8,2-1.6,3C409.3,295.5,407.8,296.8,407.2,296.8L407.2,296.8z" id="XMLID_149_"/></g><path class="st7" d="M413.8,290.4L413.8,290.4c0.5,0.4-0.3,2.3-1.7,4.3l0,0.1c-1.5,2-3,3.4-3.5,3l0,0   c-0.5-0.4,0.3-2.3,1.7-4.3l0-0.1C411.7,291.4,413.3,290.1,413.8,290.4L413.8,290.4z" id="XMLID_148_"/><g><path class="st2" d="M408.7,297.9l-0.2-0.1c-0.6-0.4,0.4-2.6,1.7-4.4c1.4-1.9,2.8-3.1,3.4-3.1    c0.1,0.1,0.1,0.2,0.1,0.4c-1-0.2-2.3,1.1-3.4,2.8c-1.6,2.2-2.2,4-1.8,4.3l0.2,0.1c0.6,0,2-1.3,3.3-3c0.8-1.1,1.4-2.2,1.7-3    c-0.2,0.9-0.8,2-1.6,3C410.8,296.6,409.4,297.9,408.7,297.9L408.7,297.9z" id="XMLID_147_"/></g><path class="st7" d="M414.9,291.4L414.9,291.4c0.5,0.4-0.3,2.3-1.7,4.3l0,0.1c-1.5,2-3,3.4-3.5,3l0,0   c-0.5-0.4,0.3-2.3,1.7-4.3l0-0.1C412.8,292.4,414.4,291,414.9,291.4L414.9,291.4z" id="XMLID_146_"/><g><path class="st2" d="M409.8,298.9l-0.2-0.1c-0.6-0.5,0.4-2.6,1.7-4.4c1.3-1.8,2.8-3.1,3.4-3.1    c0.1,0.1,0.2,0.1,0.2,0.2c0,0-0.1,0-0.1,0c-0.8,0-2.2,1.3-3.4,3c-1.6,2.2-2.2,4-1.8,4.3l0.2,0.1c0.6,0,2-1.3,3.3-3    c1.3-1.8,2-3.4,1.9-4c0.2,0.9-0.7,2.6-1.8,4C411.9,297.6,410.5,298.9,409.8,298.9L409.8,298.9z" id="XMLID_145_"/></g><path class="st7" d="M422.6,295.7L422.6,295.7c0.5,0.4-0.3,2.3-1.7,4.3l0,0.1c-1.5,2-3,3.4-3.5,3l0,0   c-0.5-0.4,0.3-2.3,1.7-4.3l0-0.1C420.5,296.7,422.1,295.3,422.6,295.7L422.6,295.7z" id="XMLID_144_"/><g><path class="st2" d="M417.5,303.2l-0.2-0.1c-0.6-0.4,0.4-2.6,1.7-4.4c1.4-1.9,2.7-3.1,3.4-3.1    c0.1,0.1,0.2,0.1,0.2,0.2c0,0,0,0-0.1,0c-0.8,0-2.2,1.3-3.4,3c-1.6,2.2-2.2,4-1.8,4.3l0.2,0.1c0.6,0,2-1.3,3.3-3    c1.3-1.8,1.9-3.3,1.9-4c0.1,0.9-0.7,2.5-1.8,4C419.6,301.9,418.2,303.2,417.5,303.2L417.5,303.2z" id="XMLID_143_"/></g><path class="st7" d="M421.4,295.3L421.4,295.3c0.5,0.4-0.3,2.3-1.7,4.3l0,0.1c-1.5,2-3,3.4-3.5,3l0,0   c-0.5-0.4,0.3-2.3,1.7-4.3l0-0.1C419.3,296.3,420.9,294.9,421.4,295.3L421.4,295.3z" id="XMLID_142_"/><g><path class="st2" d="M416.3,302.8l-0.2-0.1c-0.6-0.5,0.4-2.6,1.7-4.4c1.3-1.8,2.8-3.1,3.4-3.1    c0.1,0.1,0.1,0.2,0.1,0.4c-0.9,0-2.3,1.1-3.4,2.8c-1.6,2.2-2.2,4-1.8,4.3l0.2,0.1c0.6,0,2-1.3,3.3-3c0.8-1.1,1.4-2.2,1.7-3    c-0.2,0.9-0.8,2-1.6,3C418.4,301.5,417,302.8,416.3,302.8L416.3,302.8z" id="XMLID_141_"/></g><path class="st7" d="M420.4,294.8L420.4,294.8c0.5,0.4-0.3,2.3-1.7,4.3l0,0.1c-1.5,2-3,3.4-3.5,3l0,0   c-0.5-0.4,0.3-2.3,1.7-4.3l0-0.1C418.3,295.7,419.8,294.4,420.4,294.8L420.4,294.8z" id="XMLID_140_"/><g><path class="st2" d="M415.3,302.2l-0.2-0.1c-0.6-0.5,0.4-2.6,1.7-4.4c1.4-1.9,2.7-3.1,3.4-3.1    c0.1,0.1,0.1,0.2,0.1,0.4c-1-0.2-2.3,1.1-3.4,2.8c-1.6,2.2-2.2,4-1.8,4.3l0.2,0.1c0.6,0,2-1.3,3.3-3c0.8-1.1,1.4-2.2,1.7-3    c-0.2,0.9-0.8,2-1.6,3C417.4,301,415.9,302.2,415.3,302.2L415.3,302.2z" id="XMLID_139_"/></g><path class="st7" d="M418.9,293.8L418.9,293.8c0.5,0.4-0.3,2.3-1.7,4.3l0,0.1c-1.5,2-3,3.4-3.6,3l0,0   c-0.5-0.4,0.3-2.3,1.7-4.3l0-0.1C416.8,294.8,418.4,293.4,418.9,293.8L418.9,293.8z" id="XMLID_138_"/><g><path class="st2" d="M413.8,301.3l-0.2-0.1c-0.6-0.4,0.4-2.6,1.7-4.4c1.3-1.8,2.8-3.1,3.4-3.1    c0.1,0,0.1,0.1,0.2,0.2c0,0,0,0-0.1,0c-0.8,0-2.2,1.3-3.4,3c-1.6,2.2-2.2,4-1.8,4.3l0.2,0.1c0.6,0,2-1.3,3.3-3    c1.3-1.8,1.9-3.2,1.9-3.9c0.1,0.9-0.7,2.5-1.8,3.9C415.9,300,414.5,301.3,413.8,301.3L413.8,301.3z" id="XMLID_137_"/></g><path class="st7" d="M417.4,293L417.4,293c0.5,0.4-0.3,2.3-1.7,4.3l0,0.1c-1.5,2-3,3.4-3.5,3l0,0   c-0.5-0.4,0.3-2.3,1.7-4.3l0-0.1C415.3,294,416.9,292.7,417.4,293L417.4,293z" id="XMLID_136_"/><g><path class="st2" d="M412.3,300.5l-0.2-0.1c-0.6-0.5,0.4-2.6,1.7-4.4c1.4-1.9,2.8-3.1,3.4-3.1    c0.1,0.1,0.2,0.1,0.2,0.2c0,0,0,0-0.1,0c-0.8,0-2.2,1.3-3.4,3c-1.6,2.2-2.2,4-1.8,4.3l0.2,0.1c0.6,0,2-1.3,3.3-3    c1.3-1.8,1.9-3.3,1.9-4c0.1,0.9-0.7,2.5-1.8,4C414.4,299.2,413,300.5,412.3,300.5L412.3,300.5z" id="XMLID_135_"/></g><path class="st7" d="M416.2,292.2L416.2,292.2c0.5,0.4-0.3,2.3-1.7,4.3l0,0.1c-1.5,2-3,3.4-3.5,3l0,0   c-0.5-0.4,0.3-2.3,1.7-4.3l0-0.1C414.1,293.2,415.7,291.8,416.2,292.2L416.2,292.2z" id="XMLID_134_"/><g><path class="st2" d="M411.1,299.7l-0.2-0.1c-0.6-0.4,0.4-2.6,1.7-4.4c1.3-1.8,2.8-3.1,3.4-3.1    c0.1,0.1,0.1,0.2,0.1,0.4c-0.9,0-2.3,1.2-3.4,2.8c-1.6,2.2-2.2,4-1.8,4.3l0.2,0.1c0.6,0,2-1.3,3.3-3c0.8-1.1,1.4-2.2,1.7-3    c-0.2,0.9-0.8,2-1.6,3C413.2,298.4,411.8,299.7,411.1,299.7L411.1,299.7z" id="XMLID_133_"/></g><path class="st7" d="M404.1,301.1L404.1,301.1c0.6,0.3,0,2.3-1.1,4.5l0,0.1c-1.2,2.2-2.6,3.7-3.1,3.4l0,0   c-0.5-0.3,0-2.3,1.2-4.5l0-0.1C402.2,302.3,403.6,300.8,404.1,301.1L404.1,301.1z" id="XMLID_132_"/><g><path class="st2" d="M400,309.2l-0.2,0c-0.1-0.1-0.1-0.3-0.1-0.4c0,0,0,0.1,0,0.1l0.3,0.2c0.6,0,1.9-1.5,2.9-3.4    c0.7-1.2,1.2-2.5,1.3-3.3c-0.1,1-0.5,2.1-1.2,3.3C401.9,307.7,400.7,309.2,400,309.2L400,309.2z M399.7,308.6    c-0.1-1,0.4-2.5,1.2-4.1c1.1-2.1,2.4-3.6,3.1-3.6c0.1,0.1,0.1,0.2,0.2,0.3c-0.9,0-2.1,1.4-3.1,3.2    C400.1,306.2,399.6,307.9,399.7,308.6L399.7,308.6z"/></g><path class="st7" d="M404.8,293L404.8,293c0.5,0.4-0.3,2.3-1.7,4.3l0,0.1c-1.5,2-3,3.4-3.5,3l0,0   c-0.5-0.4,0.3-2.3,1.7-4.3l0-0.1C402.7,294,404.3,292.6,404.8,293L404.8,293z" id="XMLID_129_"/><g><path class="st2" d="M399.7,300.5l-0.2-0.1c-0.6-0.5,0.4-2.6,1.7-4.4c1.3-1.8,2.8-3.1,3.4-3.1    c0.1,0.1,0.2,0.1,0.2,0.2c0,0,0,0-0.1,0c-0.8,0-2.2,1.3-3.4,3c-1.6,2.2-2.2,4-1.8,4.3l0.2,0.1c0.6,0,2-1.3,3.3-3    c1.3-1.8,1.9-3.3,1.9-3.9c0.1,0.9-0.7,2.5-1.8,3.9C401.8,299.2,400.4,300.5,399.7,300.5L399.7,300.5z" id="XMLID_128_"/></g><path class="st7" d="M406.2,293.9L406.2,293.9c0.5,0.4-0.3,2.3-1.7,4.3l0,0.1c-1.5,2-3,3.4-3.5,3l0,0   c-0.5-0.4,0.3-2.3,1.7-4.3l0-0.1C404.1,294.9,405.7,293.6,406.2,293.9L406.2,293.9z" id="XMLID_127_"/><g><path class="st2" d="M401.1,301.4l-0.2-0.1c0-0.1-0.1-0.2-0.1-0.3c0,0,0,0,0,0l0.3,0.3c0.6,0,2-1.3,3.3-3c1.3-1.8,1.9-3.3,1.9-3.9    c0.1,0.9-0.7,2.5-1.8,3.9C403.2,300.1,401.8,301.4,401.1,301.4L401.1,301.4z M400.8,300.7c0.1-1,0.8-2.4,1.8-3.8    c1.3-1.8,2.8-3.1,3.4-3.1c0.1,0.1,0.2,0.1,0.2,0.2c0,0,0,0-0.1,0c-0.8,0-2.2,1.3-3.4,3C401.7,298.5,400.9,299.9,400.8,300.7    L400.8,300.7z"/></g><path class="st7" d="M407.6,295L407.6,295c0.5,0.4-0.3,2.3-1.7,4.3l0,0.1c-1.5,2-3,3.4-3.5,3l0,0   c-0.5-0.4,0.3-2.3,1.7-4.3l0-0.1C405.6,295.9,407.1,294.6,407.6,295L407.6,295z" id="XMLID_124_"/><g><path class="st2" d="M402.6,302.4l-0.2-0.1c-0.6-0.4,0.4-2.6,1.7-4.4c1.3-1.8,2.8-3.1,3.4-3.1    c0.1,0.1,0.2,0.1,0.2,0.2c0,0,0,0-0.1,0c-0.8,0-2.2,1.3-3.4,3c-1.6,2.2-2.2,4-1.8,4.3l0.2,0.1c0.6,0,2-1.3,3.3-3    c1.3-1.8,1.9-3.3,1.9-3.9c0.1,0.9-0.7,2.5-1.8,3.9C404.7,301.2,403.2,302.4,402.6,302.4L402.6,302.4z" id="XMLID_123_"/></g><path class="st7" d="M409.2,296L409.2,296c0.5,0.4-0.3,2.3-1.7,4.3l0,0.1c-1.5,2-3,3.4-3.5,3l0,0   c-0.5-0.4,0.3-2.3,1.7-4.3l0-0.1C407.1,297,408.7,295.7,409.2,296L409.2,296z" id="XMLID_122_"/><g><path class="st2" d="M404.1,303.5l-0.2-0.1c0-0.1-0.1-0.2-0.1-0.3c0,0,0,0,0,0l0.3,0.3c0.6,0,2-1.3,3.3-3c1.3-1.8,1.9-3.3,1.9-4    c0.1,0.9-0.7,2.5-1.8,4C406.2,302.2,404.8,303.5,404.1,303.5L404.1,303.5z M403.8,302.8c0.1-1,0.8-2.4,1.8-3.8    c1.3-1.8,2.8-3.1,3.4-3.1c0.1,0.1,0.2,0.1,0.2,0.2c0,0,0,0-0.1,0c-0.8,0-2.2,1.3-3.4,3C404.6,300.6,403.9,302.1,403.8,302.8    L403.8,302.8z"/></g><path class="st7" d="M410.3,297L410.3,297c0.5,0.4-0.3,2.3-1.7,4.3l0,0.1c-1.5,2-3,3.4-3.5,3l0,0   c-0.5-0.4,0.3-2.3,1.7-4.3l0-0.1C408.2,298,409.8,296.7,410.3,297L410.3,297z" id="XMLID_119_"/><g><path class="st2" d="M405.2,304.5l-0.2-0.1c-0.6-0.5,0.4-2.6,1.7-4.4c1.3-1.8,2.8-3.1,3.4-3.1    c0.1,0.1,0.1,0.2,0.1,0.4c-0.9,0-2.3,1.1-3.4,2.8c-1.6,2.2-2.2,4-1.8,4.3l0.2,0.1c0.6,0,2-1.3,3.3-3c0.8-1.1,1.4-2.2,1.7-3    c-0.2,0.9-0.8,2-1.6,3C407.3,303.2,405.9,304.5,405.2,304.5L405.2,304.5z" id="XMLID_118_"/></g><path class="st7" d="M418,301.3L418,301.3c0.5,0.4-0.3,2.3-1.7,4.3l0,0.1c-1.5,2-3,3.4-3.5,3l0,0   c-0.5-0.4,0.3-2.3,1.7-4.3l0-0.1C415.9,302.3,417.5,301,418,301.3L418,301.3z" id="XMLID_117_"/><g><path class="st2" d="M412.9,308.8l-0.2-0.1c0-0.1-0.1-0.2-0.1-0.3c0,0,0,0,0,0l0.3,0.3c0.6,0,2-1.3,3.3-3c1.3-1.8,1.9-3.3,1.9-4    c0.1,0.9-0.7,2.5-1.8,4C415,307.5,413.6,308.8,412.9,308.8L412.9,308.8z M412.6,308.1c0.1-1,0.8-2.4,1.8-3.8    c1.3-1.8,2.8-3.1,3.4-3.1c0.1,0.1,0.2,0.1,0.2,0.2c0,0-0.1,0-0.1,0c-0.8,0-2.2,1.3-3.4,3C413.4,305.9,412.7,307.3,412.6,308.1    L412.6,308.1z"/></g><path class="st7" d="M416.8,300.9L416.8,300.9c0.5,0.4-0.3,2.3-1.7,4.3l0,0.1c-1.5,2-3,3.4-3.5,3l0,0   c-0.5-0.4,0.3-2.3,1.7-4.3l0-0.1C414.7,301.9,416.3,300.5,416.8,300.9L416.8,300.9z" id="XMLID_114_"/><g><path class="st2" d="M411.7,308.4l-0.2-0.1c-0.6-0.4,0.4-2.6,1.7-4.4c1.3-1.8,2.8-3.1,3.4-3.1    c0.1,0.1,0.2,0.1,0.2,0.2c0,0,0,0-0.1,0c-0.8,0-2.2,1.3-3.4,3c-1.6,2.2-2.2,4-1.8,4.3l0.2,0.1c0.6,0,2-1.3,3.3-3    c1.3-1.8,1.9-3.3,1.9-3.9c0.1,0.9-0.7,2.5-1.8,3.9C413.8,307.1,412.4,308.4,411.7,308.4L411.7,308.4z" id="XMLID_113_"/></g><path class="st7" d="M415.7,300.4L415.7,300.4c0.5,0.4-0.3,2.3-1.7,4.3l0,0.1c-1.5,2-3,3.4-3.5,3l0,0   c-0.5-0.4,0.3-2.3,1.7-4.3l0-0.1C413.7,301.3,415.2,300,415.7,300.4L415.7,300.4z" id="XMLID_112_"/><g><path class="st2" d="M410.7,307.9l-0.2-0.1c0-0.1-0.1-0.2-0.1-0.3v0l0.3,0.3c0.6,0,2-1.3,3.3-3c1.3-1.8,1.9-3.3,1.9-3.9    c0.1,0.9-0.7,2.5-1.8,3.9C412.8,306.6,411.3,307.9,410.7,307.9L410.7,307.9z M410.3,307.2c0-1,0.8-2.4,1.8-3.8    c1.3-1.8,2.8-3.1,3.4-3.1c0.1,0.1,0.2,0.1,0.2,0.2c0,0,0,0-0.1,0c-0.8,0-2.2,1.3-3.4,3C411.2,304.9,410.4,306.4,410.3,307.2    L410.3,307.2z"/></g><path class="st7" d="M414.3,299.4L414.3,299.4c0.5,0.4-0.3,2.3-1.7,4.3l0,0.1c-1.5,2-3,3.3-3.6,3l0,0   c-0.5-0.4,0.3-2.3,1.7-4.3l0-0.1C412.2,300.4,413.8,299,414.3,299.4L414.3,299.4z" id="XMLID_109_"/><g><path class="st2" d="M409.2,306.9l-0.2-0.1c0-0.1-0.1-0.3-0.1-0.4c0,0,0,0,0,0.1l0.3,0.3c0.6,0,2-1.3,3.3-3c1.3-1.8,1.9-3.3,1.9-4    c0.1,0.9-0.7,2.5-1.8,4C411.3,305.6,409.9,306.9,409.2,306.9L409.2,306.9z M408.9,306.3c0-1,0.7-2.4,1.8-3.9    c1.3-1.8,2.8-3.1,3.4-3.1c0.1,0.1,0.2,0.1,0.2,0.2c0,0,0,0-0.1,0c-0.8,0-2.2,1.3-3.4,3C409.7,304,409,305.5,408.9,306.3    L408.9,306.3z"/></g><path class="st7" d="M412.8,298.6L412.8,298.6c0.5,0.4-0.3,2.3-1.7,4.3l0,0.1c-1.5,2-3,3.4-3.5,3l0,0   c-0.5-0.4,0.3-2.3,1.7-4.3l0-0.1C410.7,299.6,412.3,298.3,412.8,298.6L412.8,298.6z" id="XMLID_106_"/><g><path class="st2" d="M407.7,306.1l-0.2-0.1c0-0.1-0.1-0.2-0.1-0.3l0,0l0.3,0.3c0.6,0,2-1.3,3.3-3c1.3-1.8,2-3.3,1.9-4    c0.2,0.9-0.7,2.6-1.8,4C409.8,304.8,408.4,306.1,407.7,306.1L407.7,306.1z M407.4,305.5c0.1-1,0.8-2.4,1.8-3.8    c1.3-1.8,2.8-3.1,3.4-3.1c0.1,0.1,0.2,0.1,0.2,0.2c0,0-0.1,0-0.1,0c-0.8,0-2.2,1.3-3.4,3C408.2,303.2,407.5,304.7,407.4,305.5    L407.4,305.5z"/></g><path class="st7" d="M411.6,297.8L411.6,297.8c0.5,0.4-0.3,2.3-1.7,4.3l0,0.1c-1.5,2-3,3.4-3.6,3l0,0   c-0.5-0.4,0.3-2.3,1.7-4.3l0-0.1C409.5,298.8,411.1,297.5,411.6,297.8L411.6,297.8z" id="XMLID_103_"/><g><path class="st2" d="M406.5,305.3l-0.2-0.1c0-0.1-0.1-0.3-0.1-0.4c0,0,0,0,0,0.1l0.3,0.3c0.6,0,2-1.3,3.3-3c1.3-1.8,1.9-3.3,1.9-4    c0.1,0.9-0.7,2.5-1.8,4C408.6,304,407.2,305.3,406.5,305.3L406.5,305.3z M406.2,304.7c0-1,0.7-2.4,1.8-3.9    c1.3-1.8,2.8-3.1,3.4-3.1c0.1,0.1,0.2,0.1,0.2,0.2c0,0-0.1,0-0.1,0c-0.8,0-2.2,1.3-3.4,3C407,302.4,406.2,303.9,406.2,304.7    L406.2,304.7z"/></g><path class="st11" d="M412.5,244.7L412.5,244.7c0.9,0,1.6,0.2,1.6,0.5v18.1c0,0.3-0.7,0.5-1.5,0.5h0   c-0.8,0-1.5-0.2-1.5-0.5v-18.1C411,244.9,411.7,244.7,412.5,244.7L412.5,244.7z" id="XMLID_100_"/><g><path class="st2" d="M412.6,263.9L412.6,263.9c-0.9,0-1.6-0.2-1.6-0.6v-18.1c0-0.7,3.2-0.6,3.2,0v18.1    C414.1,263.7,413.4,263.9,412.6,263.9L412.6,263.9z M412.6,244.7c-0.9,0-1.5,0.3-1.5,0.5v18.1c0,0.2,0.6,0.5,1.5,0.5h0    c0.9,0,1.5-0.3,1.5-0.5v-18.1C414,245,413.4,244.7,412.6,244.7L412.6,244.7z"/></g><polygon class="st8" id="XMLID_97_" points="409.3,251.9 400.4,257.9 406.1,250.7 411.9,249.3  "/><g><path class="st2" d="M400.5,258l-0.1-0.1l5.7-7.3l5.8-1.4l-2.5,2.8L400.5,258L400.5,258z M411.8,249.3l-5.6,1.5l-5.3,6.8l8.4-5.7    L411.8,249.3L411.8,249.3z"/></g><polygon class="st8" id="XMLID_94_" points="409.1,250.7 396.8,252.3 407.5,248.4 412.2,249.3  "/><g><path class="st2" d="M396.8,252.4l0-0.2l10.8-3.9l4.8,0.8l-3.1,1.6L396.8,252.4L396.8,252.4z M407.5,248.5l-10,3.6l11.5-1.5    l3.1-1.5L407.5,248.5L407.5,248.5z"/></g><polygon class="st8" id="XMLID_91_" points="415.3,251.2 418.8,257.9 413.3,252.8 411.8,249.1  "/><g><path class="st2" d="M418.7,258l-5.4-5.1l-1.5-3.7l3.7,1.9l3.5,6.7L418.7,258L418.7,258z M411.8,249.2l1.6,3.6l5,4.7l-3.2-6.2    L411.8,249.2L411.8,249.2z"/></g><polygon class="st8" id="XMLID_88_" points="416.8,248.7 427.3,257.9 414.7,251.5 411.2,249.2  "/><g><path class="st2" d="M427.3,258l-12.7-6.4l-3.5-2.3l5.7-0.7l10.6,9.2L427.3,258L427.3,258z M416.8,248.8l-5.6,0.5l3.6,2.1l12,6.1    L416.8,248.8L416.8,248.8z"/></g><polygon class="st8" id="XMLID_85_" points="408.4,249.6 395.8,245.1 408.2,245.3 412.4,249.7  "/><g><path class="st2" d="M412.6,249.7l-4.2,0l-12.6-4.5l12.4-0.1L412.6,249.7L412.6,249.7z M395.8,245.2l12.6,4.3l3.7,0l-4-4.3    L395.8,245.2L395.8,245.2z"/></g><polygon class="st8" id="XMLID_82_" points="407.1,246 401.1,238.5 410.1,244.1 412.2,249.9  "/><g><path class="st2" d="M412.4,250.1l-5.3-4l-6-7.6l9,5.5L412.4,250.1L412.4,250.1z M401.1,238.5l6.1,7.4l4.8,3.6l-2-5.5L401.1,238.5    L401.1,238.5z"/></g><polygon class="st8" id="XMLID_79_" points="409.2,244.4 405.7,235.8 412.1,242.9 411.9,249.8  "/><g><path class="st2" d="M411.9,250.1l-2.8-5.6l-3.5-8.6l6.6,7L411.9,250.1L411.9,250.1z M405.6,235.9l3.6,8.5l2.5,5l0.3-6.5    L405.6,235.9L405.6,235.9z"/></g><polygon class="st8" id="XMLID_76_" points="412.8,243.7 420.6,236.9 415.3,246.3 411.6,249.5  "/><g><path class="st2" d="M411.5,249.8l1.2-6.1l7.9-6.8l-5.3,9.4L411.5,249.8L411.5,249.8z M420.6,236.9l-7.8,6.9l-1,5.5l3.4-3.1    L420.6,236.9L420.6,236.9z"/></g><polygon class="st8" id="XMLID_73_" points="415.2,244.7 425.3,242.7 416.3,248.4 411.6,249.6  "/><g><path class="st2" d="M411.4,249.7l3.7-5.1l10.2-2l-8.9,5.9L411.4,249.7L411.4,249.7z M425.3,242.6l-10.1,2.2l-3.4,4.7l4.5-1.2    L425.3,242.6L425.3,242.6z"/></g><polygon class="st8" id="XMLID_70_" points="415.1,246.7 427.6,248.5 416,250.4 412.2,249.3  "/><g><path class="st2" d="M416,250.5l-3.8-1.1l3-2.7l12.5,1.7L416,250.5L416,250.5z M415.1,246.8l-2.9,2.5l3.8,1l11.6-1.9L415.1,246.8    L415.1,246.8z"/></g><polygon class="st8" id="XMLID_67_" points="410.6,252.7 406.3,256.4 408.8,251.9 411.9,249.4  "/><g><path class="st2" d="M406.4,256.5l-0.1-0.1l2.5-4.5l3.1-2.5l-1.2,3.4L406.4,256.5L406.4,256.5z M411.8,249.4l-2.9,2.6l-2.3,4    l3.9-3.4L411.8,249.4L411.8,249.4z"/></g><polygon class="st8" id="XMLID_64_" points="411.1,250.5 404.5,254.6 410,249.3 412.4,248.3  "/><g><path class="st2" d="M404.5,254.7L404.5,254.7l5.4-5.4l2.5-1.1l-1.3,2.3L404.5,254.7L404.5,254.7z M412.4,248.3l-2.4,1.1l-5.1,4.9    l6.1-3.8L412.4,248.3L412.4,248.3z"/></g><polygon class="st8" id="XMLID_61_" points="414.1,249.7 419.1,256.5 413.1,251.1 411.8,248.5  "/><g><path class="st2" d="M419,256.6l-6-5.4l-1.3-2.6l2.4,1.1L419,256.6L419,256.6L419,256.6z M411.8,248.5l1.4,2.5l5.5,5l-4.6-6.3    L411.8,248.5L411.8,248.5z"/></g><polygon class="st8" id="XMLID_58_" points="410.1,248.4 403.6,242.5 410,246.7 412.2,249.1  "/><g><path class="st2" d="M412.3,249.2l-2.2-0.7l-6.5-5.9l6.4,4.1L412.3,249.2L412.3,249.2z M403.6,242.5l6.6,5.8l1.8,0.6l-2-2.2    L403.6,242.5L403.6,242.5z"/></g><polygon class="st8" id="XMLID_55_" points="413.3,247.5 419.3,248.5 413.4,248.5 411.6,248.9  "/><g><path class="st2" d="M411.6,249L411.6,249l1.6-1.6l6.1,1l-5.9,0.1L411.6,249L411.6,249z M413.3,247.5l-1.5,1.3l1.6-0.4l5.9,0    L413.3,247.5L413.3,247.5z"/></g><polygon class="st8" id="XMLID_52_" points="411.4,244.8 416,239.4 413.6,243.7 411.7,248.7  "/><g><path class="st2" d="M411.8,248.8l-0.2,0l-0.3-3.9l4.6-5.4l-2.3,4.4L411.8,248.8L411.8,248.8z M416,239.4l-4.5,5.5l0.2,3.5    l1.8-4.6L416,239.4L416,239.4z"/></g><polygon class="st8" id="XMLID_49_" points="409.2,246.4 404.2,246.1 409.4,244.7 412.1,248.5  "/><g><path class="st2" d="M412.1,248.6l-2.9-2.1l-5-0.3l5.2-1.6l2.8,3.9L412.1,248.6L412.1,248.6z M409.3,244.7l-5.1,1.4l5,0.2l2.5,1.8    L409.3,244.7L409.3,244.7z"/></g><polygon class="st8" id="XMLID_46_" points="410.1,251.1 401.4,254.7 408.6,250.2 411.8,249.3  "/><g><path class="st2" d="M401.5,254.7l-0.1-0.1l7.2-4.5l3.2-0.9l-1.7,1.9L401.5,254.7L401.5,254.7z M411.8,249.3l-3.1,1l-6.5,4.1    l7.9-3.2L411.8,249.3L411.8,249.3z"/></g><path class="st11" d="M365.2,249.2L365.2,249.2c0.4,0.2,0.7,0.5,0.6,0.7l-4.1,13.4c-0.1,0.2-0.5,0.3-0.9,0.1h0   c-0.4-0.2-0.7-0.5-0.6-0.7l4.1-13.4C364.4,249.1,364.8,249,365.2,249.2L365.2,249.2z" id="XMLID_43_"/><g><path class="st2" d="M361.3,263.5l-0.5-0.1c-0.4-0.2-0.7-0.5-0.7-0.7l4.1-13.4l0.9-0.1c0.4,0.2,0.7,0.5,0.7,0.7l-4.1,13.4    L361.3,263.5L361.3,263.5z M365.2,249.2l-0.8,0.1l-4.1,13.4c-0.1,0.2,0.2,0.5,0.6,0.6l0.5,0.1l0.4-0.2l4.1-13.4    C365.8,249.7,365.6,249.4,365.2,249.2L365.2,249.2z"/></g><path class="st11" d="M356.7,247.9L356.7,247.9c0.5,0,0.8,0.2,0.8,0.4v14.1c0,0.2-0.4,0.4-0.8,0.4h0   c-0.4,0-0.8-0.2-0.8-0.4v-14.1C355.9,248.1,356.3,247.9,356.7,247.9L356.7,247.9z" id="XMLID_40_"/><g><path class="st2" d="M356.8,262.9c-0.5,0-0.9-0.2-0.9-0.5v-14.1c0-0.5,1.7-0.5,1.7,0v14.1C357.6,262.8,357.2,262.9,356.8,262.9    L356.8,262.9z M356.8,248c-0.4,0-0.8,0.2-0.8,0.4v14.1c0,0.2,0.3,0.4,0.8,0.4h0c0.4,0,0.8-0.2,0.8-0.4v-14.1    C357.5,248.1,357.2,248,356.8,248L356.8,248z"/></g><path class="st12" d="M351.8,240.3c2-0.6,3.5,0.6,4.1,3.3c0,0.2,0.5,0.3,0.5,0.2c-0.3-4.5,4.1-8.1,6.9-1.8   c0.3,1-1.3-0.5-2.4-1.7c-1.3-1.6-3,0.3-3.2,4.5c-0.1,0.9-0.3,3-0.3,3s-1.5-0.2-1.5-0.2c0-0.1-1.2-5.1-3.3-5.7   c-1.6-0.2-1.2,0.7-3.1,1.2c-1.8,0.2-1.7-0.1-0.4-0.7C350.3,242.3,351.1,240.6,351.8,240.3L351.8,240.3z" id="XMLID_37_"/><g><path class="st2" d="M357.5,247.8L357.5,247.8c-1.5-0.2-1.6-0.3-1.6-0.3c-0.5-1.9-1.1-3.3-1.7-4.3c0.9,1.2,1.4,2.9,1.8,4.1    C356.1,247.5,356.9,247.6,357.5,247.8c-0.1-0.4,0.1-2.2,0.2-3.1c0.1-4.5,2-6,3.2-4.5c0.5,0.5,1.1,1.1,1.5,1.5    c-0.5-0.3-1.2-1-1.6-1.4c-1.1-1.4-3,0.1-3.1,4.5C357.7,245.7,357.5,247.8,357.5,247.8L357.5,247.8L357.5,247.8z M356.4,243.7    c-0.1-0.3-0.2-0.5-0.4-0.7c0.3-1.3,0.8-2.6,1.6-3.5c1.7-1.8,4.2-0.9,5.7,2.4c-0.1,0-0.1,0.1-0.2,0.1c-1.4-3.5-3.8-4.2-5.4-2.4    C356.8,240.5,356.3,242.2,356.4,243.7L356.4,243.7z M348.7,243.1c-0.1-0.1-0.2-0.1-0.3-0.1c0.5,0,0.8,0,1.1,0    c0.9-0.2,1.2-0.5,1.5-0.8c0.3-0.2,0.5-0.4,1.1-0.4c0.1,0,0.3,0.1,0.4,0.1c-0.9-0.1-1.1,0.2-1.4,0.4c-0.3,0.3-0.7,0.6-1.6,0.8    C349.2,243.1,348.9,243.1,348.7,243.1L348.7,243.1z M348.4,242.8c0-0.1,0.3-0.3,0.8-0.5c0.7,0,1.2-0.6,1.7-1.2    c0.3-0.4,0.6-0.7,1-0.9c1.4-0.4,2.6,0.1,3.4,1.3c-0.9-1.2-2-1.7-3.4-1.3c-0.3,0.1-0.6,0.5-0.9,0.8c-0.5,0.6-1,1.2-1.7,1.2    C348.7,242.6,348.5,242.7,348.4,242.8L348.4,242.8z"/></g><path class="st12" d="M352.2,242.9c2-0.5,3.4,0.9,3.9,3.5c0,0.2,0.4,0.3,0.4,0.2c-0.1-4.5,6.2-4.6,8.7,1.9   c0.2,1-0.2,0.9-1.2-0.3c-1.2-1.7-5.8-4.6-6.2-0.5c-0.2,0.9-0.4,3-0.4,3s-1.4-0.3-1.5-0.3c0-0.1-0.9-5.2-3-5.9   c-1.6-0.4-2.1,1.1-4,1.4c-1.8,0-1.7-0.2-0.4-0.7C348.9,245.1,351.4,243.1,352.2,242.9L352.2,242.9z" id="XMLID_32_"/><g><path class="st2" d="M357.5,250.8L357.5,250.8c-1.5-0.3-1.5-0.4-1.5-0.4c-0.5-2.2-1.1-3.8-1.7-4.8c0.8,1,1.4,2.6,1.8,4.6    C356.1,250.4,356.9,250.6,357.5,250.8c0-0.4,0.2-2.2,0.4-3c0.1-1.8,1.1-2.1,1.8-2.1c1.6,0,3.7,1.6,4.4,2.6c0.7,0.8,0.9,1,1,1    c0.1-0.1,0.2-0.2,0.1-0.6c-2.1-5.5-6.2-5.9-7.8-4.2c-0.6,0.6-0.8,1.4-0.8,2.3c-0.1-0.2-0.2-0.5-0.3-0.7c0.3-0.6,0.5-1.3,1-1.7    c1.6-1.7,5.8-1.3,7.9,4.3c0.1,0.4,0.1,0.6,0,0.7c-0.4,0-0.7-0.3-1.3-0.9c-0.8-1.1-2.8-2.6-4.4-2.6c-1,0-1.6,0.7-1.7,2.1    C357.8,248.7,357.5,250.7,357.5,250.8L357.5,250.8L357.5,250.8z M348.9,245.9c-1.1,0-1.3-0.1-1.3-0.2c0-0.1,0.1-0.3,1-0.6    c0.1,0,0.6-0.4,1.1-0.7c0.9-0.6,2-1.4,2.5-1.6c1.4-0.3,2.6,0.2,3.3,1.5c-0.9-1.3-1.9-1.8-3.3-1.4c-0.5,0.1-1.6,0.9-2.4,1.5    c-0.7,0.5-1.1,0.7-1.2,0.8c-0.9,0.3-1,0.5-1,0.5c0,0,0.1,0.1,0.9,0.1c1.2-0.1,1.8-0.5,2.3-0.8c0.5-0.3,0.9-0.6,1.6-0.6    c0.1,0,0.3,0.1,0.4,0.1c-1,0-1.4,0.2-1.9,0.5c-0.5,0.3-1.1,0.7-2,0.8C348.9,245.9,348.9,245.9,348.9,245.9L348.9,245.9z"/></g><path class="st12" d="M352.7,246c2-0.3,3.4,1.2,3.6,3.9c0,0.2,0.4,0.3,0.4,0.3c0.2-4.5,4.3-2,5.9,4.1   c0.2,0.7-1.3-0.7-2.1-2c-1.1-1.8-1.9-5-2.5-0.9c-0.2,0.9-0.7,2.9-0.7,2.9s-1.4-0.4-1.4-0.5c0-0.1-0.5-5.3-2.6-6.1   c-1.6-0.5-2.5,3.6-4.4,3.7c-1.8-0.1-1.7-0.4-0.3-0.7C348.9,250.6,351.9,246.1,352.7,246L352.7,246z" id="XMLID_29_"/><g><path class="st2" d="M362.7,254.4c-0.3,0-1.5-1.2-2.1-2.2c-0.2-0.4-0.5-0.9-0.7-1.3c-0.7-1.5-1.4-2.4-1.8,0.4    c-0.2,0.9-0.7,2.9-0.7,2.9c-1.5-0.4-1.5-0.4-1.5-0.5c-0.4-3-1.1-5-2.1-5.8c1.1,0.9,1.8,2.8,2.2,5.7c0.1,0.2,0.9,0.4,1.4,0.6    c0-0.1,0.4-2,0.6-2.9c0.5-2.9,1.1-2.1,1.9-0.4c0.2,0.4,0.4,0.9,0.7,1.3C361.3,253.3,362.4,254.3,362.7,254.4L362.7,254.4    L362.7,254.4c-1.7-6.6-5.6-8.3-5.8-4.3c-0.1-0.3-0.2-0.5-0.2-0.8c0.4-0.9,0.9-1.6,1.6-1.6c1.4,0,3.5,2.4,4.5,6.4L362.7,254.4    L362.7,254.4z M349,251.4c-1.2-0.1-1.4-0.2-1.4-0.3c0-0.1,0.1-0.2,1.1-0.5c0.1,0,0.7-0.7,1.2-1.4c1.1-1.4,2.4-3.1,2.9-3.2    c0.4,0,0.7,0,1.1,0.1c-0.2,0-0.4-0.1-0.6-0.1c-0.9,0.1-2.3,1.9-3.3,3.2c-0.8,1.1-1.1,1.5-1.2,1.5c-0.9,0.3-1,0.4-1,0.4    C347.7,251.1,347.8,251.3,349,251.4c0.9-0.1,1.6-1.2,2.3-2.2c0.6-0.9,1.2-1.7,1.8-1.7c0.2,0.1,0.4,0.2,0.6,0.3    c-0.1-0.1-0.2-0.2-0.4-0.2c-1.1-0.3-1.4,0.8-2,1.6C350.6,250.3,349.9,251.4,349,251.4L349,251.4z"/></g><path class="st11" d="M345.2,248L345.2,248c0.4-0.2,0.8-0.1,0.9,0.1l4.6,13.4c0.1,0.2-0.2,0.5-0.6,0.7h0   c-0.4,0.1-0.8,0.1-0.9-0.1l-4.6-13.4C344.5,248.4,344.8,248.1,345.2,248L345.2,248z" id="XMLID_26_"/><g><path class="st2" d="M349.7,262.3l-0.5-0.2l-4.6-13.4c0.1-0.4,0.3-0.6,0.6-0.7l1,0.2l4.6,13.4c0.1,0.2-0.2,0.6-0.6,0.7    L349.7,262.3L349.7,262.3z M345.2,248L345.2,248c-0.3,0.1-0.5,0.3-0.6,0.5l4.6,13.6l0.4,0.2l0.4-0.1c0.4-0.1,0.7-0.4,0.6-0.6    l-4.6-13.4L345.2,248L345.2,248z"/></g><path class="st12" d="M346.6,239.4c-2,0.2-3,1.9-2.5,4.6c0.1,0.2-0.3,0.4-0.3,0.4c-1.4-4.2-6-4.1-6.2,2.8   c0.1,1,1.1-0.9,1.6-2.4c0.6-2,2-2.7,3.7,1.1c0.5,0.8,1.4,2.7,1.4,2.7s1.3-0.7,1.3-0.8c0-0.1-0.9-5.2,0.9-6.5   c1.4-0.8,1.4-0.8,3.4-1.1c1.7-0.5,1.6-0.7,0.1-0.8C349.6,239.3,347.4,239.4,346.6,239.4L346.6,239.4z" id="XMLID_23_"/><g><path class="st2" d="M344.2,248.6L344.2,248.6c0,0-1-1.9-1.4-2.7c-1-2.2-1.8-2.7-2.3-2.7c-0.5,0-1,0.6-1.3,1.6    c-0.3,0.8-1.1,2.7-1.5,2.7c0-0.1,0-0.2,0-0.3c0.4,0,0.9-1.1,1.4-2.4c0.7-2.4,2.4-2.1,3.8,1.1c0.4,0.7,1.2,2.3,1.4,2.6    c0.5-0.3,1.2-0.7,1.2-0.8c-0.5-3.6-0.1-5.8,0.9-6.5c1.3-0.8,1.4-0.8,3-1.1c1.5-0.4,1.5-0.6,1.5-0.6c0,0-0.1-0.1-1.1-0.2    c-0.2,0-1.8,0.1-2.8,0.1c-1.4,0.1-2,0.5-2.5,1c-0.6,0.8-0.8,2-0.6,3.5c-0.1-0.1-0.2-0.3-0.3-0.4c0.1-1.5,0.3-2.5,0.8-3.2    c0.5-0.6,1.1-0.9,2-1c1.5-0.1,3.1-0.1,3.3-0.2c1,0,1.2,0.1,1.2,0.2c0,0.1-0.1,0.3-1.3,0.6c-1.9,0.3-2.1,0.4-3.3,1.1    c-1,0.7-1.3,3-0.9,6.3C345.5,247.7,345.5,247.8,344.2,248.6L344.2,248.6L344.2,248.6z M338.2,243.8c1-3,3.1-2.8,4.4-1.4    C341.1,241.2,339.2,241,338.2,243.8L338.2,243.8z"/></g><path class="st12" d="M347.2,242c-2,0.3-2.8,2.1-2.3,4.8c0.1,0.2-0.3,0.5-0.3,0.4c-1.6-4.2-6.2-3.8-6,3.2   c0.2,1,1-1,1.4-2.5c0.5-2,1.8-2.8,3.8,0.8c0.5,0.8,1.6,2.6,1.6,2.6s1.2-0.8,1.2-0.9c0-0.1-1.2-5.2,0.5-6.6c1.3-0.9,1.4-0.9,3.3-1.4   c1.7-0.6,1.5-0.8,0.1-0.8C350.2,241.6,348,241.9,347.2,242L347.2,242z" id="XMLID_20_"/><g><path class="st2" d="M345.4,251.3L345.4,251.3c0,0-1.1-1.8-1.6-2.6c-1.1-2.1-1.9-2.5-2.4-2.5c-0.6,0-1,0.6-1.3,1.7    c-0.2,0.8-0.9,2.8-1.3,2.8c0-0.1,0-0.2,0-0.3c0.4,0,0.9-1.2,1.2-2.5c0.6-2.4,2.2-2.3,3.8,0.8c0.5,0.7,1.4,2.3,1.5,2.5    c0.4-0.3,1.1-0.8,1.2-0.8c-0.4-2-0.8-5.5,0.5-6.6c1.3-0.9,1.4-0.9,3-1.3c1.4-0.5,1.5-0.7,1.5-0.7c0,0-0.1-0.1-0.7-0.1    c-0.6,0.1-2.9,0.3-3.7,0.4c-0.8,0.1-1.4,0.5-1.9,1.1c-0.6,0.8-0.7,2.1-0.4,3.6c-0.1-0.1-0.2-0.3-0.3-0.4c0-1.5,0.1-2.5,0.6-3.2    c0.4-0.6,1.1-1,1.9-1.2c0.8-0.1,3-0.3,3.3-0.4c1,0,1.2,0.1,1.2,0.2c0,0.1-0.1,0.3-1.2,0.7c-1.9,0.5-2,0.5-3.3,1.4    c-1.3,1.1-0.9,4.5-0.5,6.4C346.7,250.4,346.6,250.4,345.4,251.3L345.4,251.3L345.4,251.3z M338.8,248.5c0.1-1.5,0.5-2.7,1.2-3.4    c1-1,2.4-0.9,3.5,0.1c-1.1-0.9-2.5-1-3.4,0C339.4,245.9,338.9,247,338.8,248.5L338.8,248.5z"/></g><path class="st12" d="M347.9,245c-2,0.5-2.6,2.3-1.9,5c0.1,0.2-0.3,0.5-0.3,0.4c-1.9-4-6.4-3.2-5.7,3.7   c0.3,1,0.9-1.1,1.2-2.6c0.3-2.1,1.6-3,3.8,0.5c0.6,0.8,1.7,2.5,1.7,2.5s1.1-0.9,1.2-1c0-0.1-1.5-5.1,0-6.7c1.2-1,1.3-1,3.1-1.7   c1.6-0.8,1.4-1,0-0.8C350.9,244.4,348.7,244.9,347.9,245L347.9,245z" id="XMLID_17_"/><g><path class="st2" d="M346.8,254.5L346.8,254.5c0,0-1.2-1.7-1.8-2.5c-1.2-1.9-2-2.3-2.5-2.3c-0.6,0-1.1,0.7-1.2,1.8    c0,0-0.6,2.9-1.1,2.9c0-0.1,0-0.2,0-0.3c0.3,0,0.8-1.2,1-2.7c0.4-2.5,2-2.5,3.9,0.5c0.5,0.7,1.5,2.2,1.7,2.4    c0.4-0.3,1.1-0.9,1.1-0.9c-0.5-2-1.2-5.4,0-6.7c1.2-1,1.3-1,2.8-1.6c0.9-0.4,1.2-0.6,1.3-0.7c0,0.2-0.3,0.3-1,0.7    c-1.8,0.6-2,0.7-3.1,1.6c-0.9,0.9-0.9,3.3,0,6.5C348,253.5,348,253.5,346.8,254.5L346.8,254.5L346.8,254.5z M340,252.3    c0-1.6,0.4-2.8,1-3.6c0.9-1,2.4-1,3.5,0c-1.2-0.8-2.5-0.9-3.4,0.1C340.5,249.5,340.1,250.7,340,252.3L340,252.3z M346.1,250    c-0.1-0.1-0.2-0.2-0.4-0.3c-0.1-1.5,0-2.5,0.4-3.3c0.4-0.7,1-1.1,1.8-1.3c0.8-0.2,3-0.6,3.2-0.7c0.3,0,0.6-0.1,0.8-0.1    c0.1,0,0.1,0.1,0.2,0.1c-0.4,0-0.7,0-0.9,0c-0.2,0.1-2.4,0.5-3.2,0.7c-0.8,0.2-1.4,0.6-1.8,1.3C345.7,247.2,345.6,248.5,346.1,250    L346.1,250z"/></g><path class="st12" d="M363.6,238.5c2,0.2,3.1,1.9,2.9,4.6c-0.1,0.2,0.4,0.4,0.4,0.4c1.1-4.3,6.4-6.1,7.1,0.9   c0,1-1.1-1-1.7-2.4c-0.7-2-3-0.8-4.4,3c-0.4,0.8-1.2,2.7-1.2,2.7s-1.3-0.7-1.3-0.8c0-0.1,0.5-5.3-1.4-6.6c-1.4-0.8-1.3,0.3-3.2,0   c-1.7-0.5-1.6-0.7-0.2-0.8C361.6,239.8,362.8,238.4,363.6,238.5L363.6,238.5z" id="XMLID_13_"/><g><path class="st2" d="M366.7,247.7L366.7,247.7c-1.4-0.8-1.4-0.8-1.4-0.8c0.1-1.7,0.1-5.5-1.4-6.6c-0.4-0.2-0.7-0.3-0.9-0.3    c-1.2,0.3-1.4,0.4-2.3,0.3c-1.2-0.3-1.3-0.5-1.3-0.6c0-0.1,0.2-0.2,1.1-0.3c1,0.1,1.5-0.2,1.9-0.5c0.4-0.2,0.8-0.4,1.2-0.4    c1.4,0.1,2.3,0.9,2.7,2.3c-0.5-1.3-1.4-2.1-2.7-2.2l0,0c-0.3,0-0.7,0.2-1.1,0.4c-0.5,0.3-1,0.6-1.6,0.6l0,0    c-1.4-0.1-1.4,0.1-1.4,0.1c0,0,0.1,0.2,1.2,0.5c0.9,0.1,1.3,0,1.7-0.1l0,0l0.6-0.1c0.3,0,0.6,0.1,1,0.3c1.5,1,1.5,4.5,1.4,6.5    c0,0.2,0.8,0.6,1.3,0.8c0.1-0.3,0.8-1.9,1.2-2.7c1.5-4.3,3.8-4.8,4.4-3c0.3,0.8,0.7,1.5,1,2.1c-0.4-0.6-0.9-1.6-1.1-2    c-0.6-1.8-2.8-1.1-4.3,3C367.5,245.7,366.7,247.6,366.7,247.7L366.7,247.7L366.7,247.7z M373.8,244.3    C373.8,244.3,373.8,244.3,373.8,244.3c-0.3-3-1.5-4.7-3.1-4.7c-1.6,0-3.3,1.6-3.8,3.8c0-0.3-0.1-0.6-0.1-0.9c0.9-1.6,2.4-3,3.9-3    c1.7,0,3,1.8,3.3,4.7C373.9,244.3,373.9,244.3,373.8,244.3L373.8,244.3z"/></g><path class="st12" d="M363.2,241c2,0.3,3,2.1,2.6,4.8c-0.1,0.2,0.3,0.5,0.3,0.4c1.3-4.2,7.3-2,7.6,5   c-0.1,1-0.5,0.8-1-0.7c-0.6-2-4.1-6.5-5.7-2.8c-0.5,0.8-1.3,2.6-1.3,2.6s-1.3-0.8-1.3-0.9c0-0.1,0.7-5.3-1-6.7   c-1.4-0.9-2.3,0.3-4.2-0.2c-1.7-0.6-1.5-0.8-0.1-0.8C359.3,241.9,362.4,241,363.2,241L363.2,241z" id="XMLID_10_"/><g><path class="st2" d="M373.5,251.9c-0.2,0-0.5-0.5-0.8-1.4c-0.5-1.5-2.4-4.2-4-4.2c-0.7,0-1.2,0.5-1.6,1.4    c-0.5,0.8-1.3,2.6-1.3,2.6c-1.3-0.8-1.4-0.9-1.4-0.9c0.2-2.1,0.4-5.5-1-6.6c-0.6-0.4-1.3-0.4-2-0.2c-0.6,0.1-1.3,0.2-2.1,0.1    c-1.1-0.4-1.3-0.6-1.3-0.7c0-0.1,0.4-0.1,0.9-0.2c0.4,0,0.9-0.1,1.5-0.3c0.9-0.2,2.1-0.5,2.7-0.5c1.4,0.2,2.3,1.1,2.7,2.4    c-0.5-1.4-1.3-2.1-2.6-2.3c0,0,0,0,0,0c-0.6,0-1.8,0.3-2.7,0.5c-0.6,0.2-1.1,0.3-1.3,0.3l0,0c-1,0.1-1.1,0.1-1.1,0.1    c0,0,0.1,0.2,1.2,0.6c0.7,0.2,1.5,0.1,2.1-0.1c0.8-0.2,1.4-0.2,2.1,0.2c1.4,1.1,1.3,4.6,1.1,6.6c0,0.2,0.8,0.7,1.2,1    c0-0.1,0.8-1.8,1.3-2.6c0.4-1,1-1.5,1.7-1.5c1.7,0,3.6,2.8,4.1,4.3C373.2,251.7,373.4,251.8,373.5,251.9c0-0.1,0.2-0.1,0.2-0.7    c-0.2-4.4-2.7-7.1-5-7.1c-1.2,0-2.1,0.8-2.5,2.1c0-0.3,0-0.6,0-0.8c0.7-0.8,1.5-1.4,2.6-1.4c2.3,0,4.9,2.7,5.1,7.2    C373.7,251.7,373.6,251.9,373.5,251.9L373.5,251.9z" id="XMLID_9_"/></g><path class="st12" d="M362.7,244.1c2,0.5,2.8,2.3,2.2,5c-0.1,0.2,0.3,0.5,0.3,0.4c1.6-4.1,4.7-0.3,4.3,6.1   c0,0.7-1-1.1-1.4-2.7c-0.5-2.1-0.2-5.4-2.1-1.8c-0.5,0.8-1.5,2.5-1.5,2.5s-1.2-0.9-1.2-1c0-0.1,1.1-5.2-0.5-6.7   c-1.3-1-3.4,2.5-5.3,1.9c-1.6-0.8-1.5-1-0.1-0.8C357.7,247.1,361.9,244,362.7,244.1L362.7,244.1z" id="XMLID_8_"/><g><path class="st2" d="M369.5,255.8c-0.3,0-1-1.6-1.4-2.8c-0.1-0.5-0.2-1-0.2-1.5c-0.2-1.7-0.5-2.7-1.8-0.3    c-0.5,0.8-1.5,2.5-1.5,2.5c-1.3-0.9-1.3-1-1.3-1c0.2-1.1,0.4-2.6,0.4-4c0.1,1.4-0.1,2.8-0.3,3.9c0,0.2,0.7,0.7,1.2,1.1    c0-0.1,1-1.7,1.5-2.5c1.3-2.6,1.7-1.5,1.9,0.3c0.1,0.5,0.1,1,0.2,1.5C368.6,254.3,369.3,255.7,369.5,255.8L369.5,255.8l0-0.2    c0.2-3.6-0.7-6.2-1.6-7.2c-0.9-1-1.9-0.5-2.6,1.2c0-0.3,0-0.6,0-0.8c1.2-1.4,1.9-1.1,2.6-0.4c1,1,1.9,3.7,1.7,7.3L369.5,255.8    L369.5,255.8z M358,247.9c-0.1-0.1-0.3-0.1-0.4-0.2c1.2,0,2-0.5,2.8-1.1c0.7-0.5,1.4-1,1.9-1c0.1,0.1,0.2,0.2,0.3,0.2    c-0.9-0.1-1.5,0.4-2.1,0.8C359.6,247.3,358.8,247.9,358,247.9L358,247.9z M357.3,247.7c-1-0.4-1.1-0.5-1-0.6    c0.6-0.1,0.9-0.1,1.2-0.1l0,0c0.1,0,0.8-0.5,1.6-0.9c1.4-0.9,3.1-1.9,3.6-1.9c1.4,0.3,2.2,1.3,2.4,2.7c-0.4-1.4-1.1-2.3-2.4-2.6h0    c-0.6,0-2.4,1.1-3.7,1.9c-1,0.6-1.5,0.9-1.6,0.9c-0.3,0-0.6-0.1-0.7-0.1C356.4,247.1,356.4,247.2,357.3,247.7L357.3,247.7z"/></g><g><path class="st2" d="M385.3,330.5l-0.2-0.1c-29.2-12.2-47.5-27.4-48.8-65.2v-64.1h97v64.1c0,31.7-13.4,50-47.8,65.2L385.3,330.5    L385.3,330.5z M337.4,202.1v63.1c1.2,37.3,18.5,51.8,47.9,64.2c33.8-15,47-33,47-64.2v-63.1H337.4L337.4,202.1z"/></g></g></svg>