<?xml version="1.0" ?><svg id="Layer_1" style="enable-background:new 0 0 512 512;" version="1.1" viewBox="0 0 512 512" xml:space="preserve" xmlns="http://www.w3.org/2000/svg" xmlns:xlink="http://www.w3.org/1999/xlink"><style type="text/css">
	.st0{fill:#F8E82A;}
	.st1{fill:#CC3220;}
	.st2{fill:#FFFCFF;}
	.st3{fill:#CC2920;}
	.st4{fill:#9BA49A;}
	.st5{fill:#FFFFFF;}
</style><g><rect height="298.7" width="512" y="106.7"/><rect class="st0" height="49.8" width="512" y="156.4"/><rect class="st1" height="49.8" width="512" y="206.2"/><rect class="st0" height="49.8" width="512" y="305.8"/><rect class="st1" height="49.8" width="512" y="355.6"/><path class="st2" d="M302.5,256c0,25.7-20.8,46.5-46.5,46.5c-25.7,0-46.5-20.8-46.5-46.5c0-25.7,20.8-46.5,46.5-46.5   C281.7,209.5,302.5,230.3,302.5,256L302.5,256z"/><g><path d="M256,302.8c-25.8,0-46.7-21-46.7-46.8s21-46.8,46.7-46.8c25.8,0,46.7,21,46.7,46.8S281.8,302.8,256,302.8L256,302.8z     M256,209.7c-25.5,0-46.3,20.8-46.3,46.3c0,25.5,20.7,46.3,46.3,46.3c25.5,0,46.2-20.8,46.2-46.3    C302.2,230.5,281.5,209.7,256,209.7L256,209.7z"/></g><path class="st3" d="M247.8,220.4l-3-5.6c1.2-1.2,3.1-2.1,6.3-2.1c0,0.2-0.3,6.1-0.3,6.1L247.8,220.4z"/><g><path d="M247.7,220.7l-3.1-5.8c1.4-1.7,3.7-2.4,6.5-2.4c0.2,0.5-0.1,6.3-0.1,6.3L247.7,220.7L247.7,220.7z M250.8,212.7    c-2.4,0.2-4.5,0.9-5.8,2.2l2.9,5.1l2.7-1.4C250.5,218.5,250.8,212.9,250.8,212.7L250.8,212.7z"/></g><path class="st0" d="M250.7,218.9l0.4-6.1c0,0,6.2-0.4,9.6,3.7c0.1-0.1-3.3,4.8-3.3,4.8L250.7,218.9z"/><g><path d="M257.5,221.5l-6.9-2.4l0.3-6.6l0.6,0c1.5,0,6.5,0.3,9.4,3.8c0.1,0.2,0.1,0.2-3.3,5.1L257.5,221.5L257.5,221.5z M251.5,213    l-0.6,5.9l6.4,2c0.5-0.8,3.1-4.4,3.2-4.6C257.8,213.2,253,213,251.5,213L251.5,213z"/></g><path class="st3" d="M257.5,221.1l3.1-4.8c2.1,2.2,2.9,3.7,3.2,6c0,0-4.9,1.2-4.9,1.2C259,223.5,257.6,221.2,257.5,221.1   L257.5,221.1z"/><g><path d="M259,223.8l-0.2-0.2c-0.1-0.2-1.3-2.2-1.4-2.4l3.1-5c2.5,2.2,3.4,3.8,3.7,6.1C263.9,222.8,259,223.8,259,223.8L259,223.8z     M257.8,221.3c0.1,0,1,1.4,1.3,2.1c0.8-0.2,4.4-1,4.6-1.1c-0.5-2-1.3-3.5-3.3-5.6L257.8,221.3L257.8,221.3z"/></g><path d="M249.3,299.8c0,0,5.8-6.6,17-5.2c-1.7-2.8-7.2-2.4-7.2-2.4s-1.7-12.9-0.4-13.5c1.3-0.6,6.9,0.1,6.9,0.1c0.7,0,2-2,1-3.3   c-1-1.3-4-6.1-2.8-7.1c1.2-0.9,7.8,0.5,7.8,0.5L253.1,245c0,0-1.9-9,1.9-13.3c4.6-3.8,4.1-7.9,4-7.9c-0.6-4.2-7-7.2-11.3-3.3   c-2.5,3.1-0.9,5.4-0.9,5.4s-6.7,1.8-6.9,3c-0.3,1.2,7.5-0.2,7.5-0.2l-0.7,5.3c0,0-15.1,13.8-3.5,25.7c0.1-0.1,0.4-0.5,0.4-0.5   s4.1,5,8.4,6.1c4,4.1,3.7,3.5,3.7,3.5s0.8,6.5,0,7.8c-1-0.3-11.3-0.7-12.8-0.1c-1.4,0.4-6.7,0.2-5.4,8.8c1-2.3,1.9-4.4,1.9-4.4   s-0.2,3.1,1.1,4.2c-0.2-3.3,1.2-5.5,1.2-5.5s0.3,3.6,1.1,4.1c0.8,0.5,0.8-5.8,5.2-5.3c4.4,0.5,7.6,0.4,7.6,0.4s1.5,12.4,1,13.6   c-3.2-0.7-10.7,0.3-11.2,2.2c4.4-0.3,6.5,0.3,6.5,0.3S248.2,298,249.3,299.8L249.3,299.8z"/><g><path d="M249.3,300.3l-0.2-0.3c-1.1-1.7,1.5-4.4,2.3-5.2c-0.5,0.1-1.7-0.1-3.8-0.1c-0.7,0-1.5,0-2.4,0.1c0.2-2.7,8.3-3.4,11.3-2.7    c0-0.7-0.7-8.2-1.3-13.2c-0.5,0.2-3.6,0.1-7.4-0.3c0,0,0,0,0,0c-2.9,0-3.7,2.5-4.2,4c-0.3,0.9-0.4,1.3-0.8,1.3    c-0.9-0.5-1.2-2.8-1.4-3.9c-0.2,0.8-0.9,2.6-0.8,5c-1.7-1-1.6-4.1-1.6-4.2l-1.4,4.5c-1.7-7.9,2.4-8.6,4.4-9c0.3,0,0.5-0.1,0.6-0.1    c0.7-0.3,2.9-0.3,4.6-0.3c3.4,0,7.7,0.2,8.3,0.4c0.3-0.8-0.1-5.2-0.4-7.4h0c-0.1,0-0.8-0.6-3.6-3.5c-4-1-7.8-5.4-8.3-6.1l0.3-0.4    c0,0,4.1,5,8.2,6.1c3.1,3.1,3.6,3.5,3.7,3.5c0.3,1.3,0.9,6.9,0.2,8.1c-1.4-0.1-11.7-0.5-12.9,0c-0.2,0.1-0.4,0.1-0.7,0.2    c-2,0.4-5.6,1-4.5,8.4l1.4-4.5c0.5,0.1,0.3,3.1,1.5,4.2c-0.6-3.1,0.8-5.4,0.9-5.5c0.6,1.6,0.9,3.7,1.4,4.1c0-0.1,0.2-0.6,0.3-1    c0.5-1.6,1.4-4.4,4.2-4.4c5.2,0.6,8,0.4,8.1,0.4c0.4,1.5,1.7,12.8,1.3,14c-0.9,0-1.8-0.1-2.8-0.1c-3.6,0-8.1,1-8.4,2.3    c0.6-0.4,1.4-0.4,2.1-0.4c2.8,0,4.1,0.3,4.2,0.3c-0.8,1.2-2.8,3.4-2.5,4.8c1.3-1.3,7-6.2,16.9-5c-1.6-1.8-5.5-1.9-6.7-1.9    l-0.8-0.2c-0.4-3.1-1.6-13.1-0.2-13.8c1.2-0.6,7.1,0,7.1,0c0.2,0,0.6-0.3,0.9-0.9c0.1-0.3,0.5-1.2-0.1-2c-0.7-0.9-3.3-4.9-3.1-6.7    c0-0.3,0.2-0.6,0.4-0.7c1.2-0.9,7.8,0.4,8,0.5l-18.9-23.5c-0.1-0.5-1.9-9.3,1.9-13.7c4.2-3.5,4.1-7.2,4-7.6    c-0.7-4.2-7.2-6.6-10.9-3.3c-2.4,2.9-0.9,5-0.8,5.1c-3.3,1.3-6.8,2.5-6.9,3.2l0,0c0,0,0.2,0.2,1.3,0.2c2.1,0,5.9-0.7,6-0.7    l-0.5,5.6c-0.2,0.2-7.7,7.1-7.9,15.3c-0.1,3.7,1.3,7.2,4.3,10.2l0,0c0.1,0.4,0,0.4-0.1,0.4c-3.4-3.2-4.9-6.8-4.7-10.6    c0.3-8.3,7.9-15.4,8-15.5l0.7-5.1c-0.2,0.3-3.7,0.9-5.8,0.9c-1.2,0-1.5-0.2-1.6-0.4c0.2-1.6,5.6-3.2,6.9-3.5    c-0.4-0.2-1.6-2.5,0.8-5.3c4-3.6,11-1,11.7,3.5c0.2,0.6,0.3,4.5-4.1,8.1c-3.7,4.2-1.8,13-1.8,13.1l18.6,23.8    c-0.3,0.4-4-0.5-6.4-0.5c-1,0-1.4,0.2-1.5,0.3c-0.4,1.9,1.9,5.6,2.8,6.7c0.5,0.7,0.6,1.6,0.1,2.5c-0.3,0.6-0.8,1.2-1.3,1.2    c0,0-2.6-0.3-4.7-0.3c-1.3,0-1.9,0.1-2.1,0.2c-0.7,0.3-0.3,7.1,0.5,13.3c1.9-0.2,5.7,0,7.1,2.3c-1.3,0.2-2.4,0.2-3.3,0.2    c-8.9,0-13.6,5.3-13.7,5.3L249.3,300.3L249.3,300.3z"/></g><path class="st4" d="M251.1,231.9c0,0-11,12.2-6.3,21.4c0.3-1.3,0.1-2.1,0.3-2.1c-0.3-0.2,1.4,1.1,1.3,0.9c0-0.7-0.5-2.1-0.5-2.1   c0.5,0.1,1,0.2,1.5,0.4c-0.3-0.5-0.6-1.1-0.9-1.6c0.7,0.1,1.4,0.2,2.1,0.3c0,0-0.7-2-0.5-2c0.3,0,1.7,0.1,1.7,0.1   C246.7,241.6,249.7,236.9,251.1,231.9L251.1,231.9z"/><g><path class="st4" d="M245,254.1l-0.3-0.6c-4.8-9.3,6.2-21.6,6.3-21.7c0.1,1.3-0.2,2.3-0.6,3.3c-1.4,3.9-2.7,7.7-0.3,12.1    c-0.2,0.4-1.7,0.2-2,0.2c0.2,0,0.5,0.9,0.7,1.7l-2.4,0.1l1.1,1.3l-1.3,0.1c0,0,0-0.1,0-0.1c0,0,0.4,1.2,0.3,1.8    c-0.5,0.3-1.7-0.7-1.7-0.7c0.3,0.7,0.3,1.3,0.1,1.9L245,254.1L245,254.1z M250.8,232c-0.8,1.5-9.6,12.1-6.1,20.5    c0-0.3,0-0.5,0.1-0.7l0.3-0.7c0.4,0.2,1.2,0.8,1.4,0.9c-0.3-0.3-0.6-1.4-0.8-1.8l-0.2-0.4l2,0.5l-1.1-1.3l2.4-0.1    c-1-1.6-0.8-1.8-0.8-1.9c0.5-0.1,2,0,2,0c-2.8-4.2-1.4-8.2,0-12.1C250.2,233.9,250.5,233,250.8,232L250.8,232z"/></g><path class="st4" d="M254.9,221.5c0,0,0.6,4.2-1.7,5.4c-0.4,0.3-1.8,0.7-1.6,1.6c0.3,1.2,0.9,1,1.8,0.7   C255.9,228.8,258.6,223.7,254.9,221.5L254.9,221.5z"/><g><path class="st4" d="M252.5,229.7c-0.6,0-0.9-0.4-1.1-1.1c-0.2-0.8,0.8-1.4,1.4-1.7c2.5-1.3,1.9-5.3,1.9-5.3    c1.9,0.7,2.5,2.1,2.2,3.9c-0.4,1.9-1.9,3.8-3.4,4.1C253.1,229.6,252.8,229.7,252.5,229.7L252.5,229.7z M254.9,221.8    c0.4,0.5,0.7,4.2-1.5,5.4c-1,0.5-1.6,0.9-1.5,1.3c0.2,0.7,0.4,0.7,0.6,0.7l0,0c0.2,0,0.5-0.1,0.7-0.1c1.4-0.3,2.8-2,3.1-3.7    C256.6,224.5,256.6,222.9,254.9,221.8L254.9,221.8z"/></g><path class="st5" d="M250.9,225.1c0,0.5-0.4,0.9-0.9,0.9c-0.5,0-0.9-0.4-0.9-0.9c0-0.5,0.4-0.9,0.9-0.9   C250.5,224.2,250.9,224.6,250.9,225.1L250.9,225.1z"/><path class="st3" d="M247.3,228.6c-0.6,0.5-3.6,3.7-0.6,4.8c3.1-0.9,2.3-1.4,3-2.1C249.7,229.9,248.1,229.5,247.3,228.6   L247.3,228.6z"/><g><path d="M246.7,233.7L246.7,233.7c-0.9-0.4-1.4-0.9-1.5-1.5c-0.2-1.5,1.5-3.3,2-3.7c0.6,0.3,0.9,0.5,1.3,0.8    c0.7,0.5,1.5,1,1.5,2.1l-0.3,0.6C249.3,232.6,249,233.1,246.7,233.7L246.7,233.7L246.7,233.7z M247.1,228.8    c-0.2,0.5-1.7,2.1-1.5,3.3c0.1,0.5,0.4,0.8,1.1,1.1c2.1-0.6,2.2-1,2.4-1.4c0.1-0.2,0.2-0.4,0.4-0.6c-0.1-0.6-0.7-1.1-1.3-1.5    C247.8,229.4,247.4,229.1,247.1,228.8L247.1,228.8z"/></g><path class="st4" d="M254,258.6c-0.2,0.7-0.8,3.2,0.1,5.2c2.7-1.1,3.9-0.8,4.8-0.2C256.7,261.9,255.9,261.1,254,258.6L254,258.6z"/><g><path class="st4" d="M254,264.1l-0.1-0.2c-0.9-1.9-0.4-4.3-0.2-5.2c0,0,0.1,0,0.1,0.1c0.2,0.9-0.3,3,0.4,4.7    c1.9-0.8,3.2-0.9,4.3-0.4c-2.1-1.2-2.9-2-4.7-4.3c2.3,2.2,3.1,2.9,5.2,4.6c-0.8,0-1.3-0.1-2-0.1c-0.8,0-1.7,0.2-2.9,0.7L254,264.1    L254,264.1z"/></g><path class="st5" d="M258.5,270.7l0.2,5.9c0,0,2.1,0.4,3,0C262.7,276.2,261.7,272.5,258.5,270.7L258.5,270.7z"/><g><path class="st5" d="M260.5,277c-0.9,0-1.9-0.2-1.9-0.2l-0.4-6.2c2.9,1.2,4.1,4,4,5.3c0,0.6-0.3,0.8-0.5,0.9    C261.5,277,261.1,277,260.5,277L260.5,277z M259.2,276.5c0.6,0,1.9,0.1,2.4-0.1c0.3-1.6-0.9-4.1-3.2-5.5l0.5,5.6    C259,276.5,259.1,276.5,259.2,276.5L259.2,276.5z"/></g><path class="st4" d="M273.5,271.4c0,0-3.8-9.2-13.6-11.5c-9.7-2.3-8.5-12.7-7.7-13.3c0.4-0.9,0.7-2.3,3.5-0.9   c2.8,1.3,15.7,7.8,17.6,8.2C275.3,254,273.7,271.6,273.5,271.4L273.5,271.4z"/><g><path d="M273.5,271.7l-0.2-0.2c-0.2-0.4-4-9.2-13.4-11.4c-5.5-1.3-7.5-5.1-8.1-8c-0.6-2.7-0.2-5.3,0.3-5.7c0.4-1.1,1.3-2.2,3.8-1    l3.2,1.6c4.8,2.4,12.9,6.3,14.3,6.6c1.7,0.3,1,10.7,0.6,15.1C273.8,271.7,273.8,271.7,273.5,271.7L273.5,271.7z M253.9,245.3    c-0.8,0-1,0.5-1.3,1.1c-0.4,0.5-1,3-0.3,5.9c0.7,2.7,2.5,6.1,7.7,7.4c8.2,1.9,12.2,8.7,13.4,11c0.4-3.1,1.2-14.7,0.1-16.5    c-1.5-0.4-8-3.5-14.6-6.7l-3.2-1.6C255,245.4,254.4,245.3,253.9,245.3L253.9,245.3z"/></g><path class="st3" d="M264.3,259.8c-0.2,0.1,13,7.8,9.1,14.4c3.8-2.5,2.5-6.8,2.5-6.8s3.1,8-4.4,11.9c0.8,0.7,1.3,0.5,1.3,0.5   l-1.3,1.3c0,0-0.6,1,4.4-1.5c-1.4,1.1-1.5,1.9-1.5,1.9s0.4,1.1,3.7-1.8c-2.6,2.9-3.2,4.3-3.2,4.3c7.2-0.6,22.7-23.9-4.9-30.8   c1.5,1.5,1.3,1.3,1.3,1.3L264.3,259.8z"/><g><path d="M274.5,284.3l0.2-0.4l0.2,0.1l-0.2-0.2c0.4-0.8,1.1-1.7,1.9-2.8c-0.7,0.6-1.3,0.9-1.7,0.9h-0.2l-0.5-0.4    c0-0.2,0.2-1,1.6-2.2c-2.1,1.5-3.5,2.1-4.1,2.1l-0.4-0.6l1.1-1.1c-0.3,0.1-0.7,0-1.1-0.4c4.6-2.7,5.1-6.8,4.9-9.5    c-0.1,1.4-0.8,3.1-2.7,4.4c1.2-2.9,0.9-7.3-8.8-14c-0.7-0.5-0.7-0.5-0.7-0.6l7.1-5.4l-1.3-1c14.9,3.2,16.5,11.3,16.2,15.8    c-0.6,7.7-7.2,14.7-11.1,15L274.5,284.3L274.5,284.3z M278,279.5c-1,1.7-2,3.1-2.6,4.2c3.7-0.8,9.6-7.4,10.1-14.5    c0.6-7.5-4.9-13.1-15.6-15.7c1.6,1,1.6,1,1.6,1.2l-6.9,5.2c0.1,0,0.2,0.1,0.3,0.2c8.1,5.6,10.9,10.4,8.6,14.3    c3.2-2.7,2.1-6.9,2.1-6.9h0c0,0,0,0,0.1,0c0.1,0,0.2,0.2,0.2,0.4c0.8,1.7,2.1,8.2-4.4,11.7c0.5,0,0.9,0.1,1.1,0.1l0,0.1l0,0    c0,0,0,0-0.1,0.1l-0.9,1.6c0.3-0.2,1.2-0.5,4.2-1.9c-1,1.4-1.1,2.2-1.1,2.2C275.2,281.5,276,281.2,278,279.5L278,279.5z"/></g><path class="st5" d="M264.9,257.5c1.8,1.3,2.4,1.7,2.6,2.3c-1.6-0.4-3.1-0.3-3.1-0.3s-3.5-3.4-4.2-3.7c-0.5,0-3.2-1.7-3.2-1.7   c-1.4-0.7-2.6-5.5,2.4-4.1c5.2,2.5,6,2.7,6,2.7c2.1,0.7,4.2,1.3,6.2,2c1.2,1.3,2.4,2.7,3.6,4c0,0-6.4-3.2-7.2-3.2   c1.7,1.4,2.8,3.4,2.8,3.4C268.7,258.4,267,257.8,264.9,257.5L264.9,257.5z"/><g><path d="M267.9,260.2l-0.4-0.1c-1-0.2-1.9-0.3-2.5-0.3l-0.7-0.1c-1.4-1.3-3.7-3.4-4.1-3.6h0c-0.4,0-2.6-1.3-3.3-1.8    c-0.8-0.4-1.6-2-1.3-3.3c0.2-0.7,1.2-2,3.9-1.2c5.1,2.4,6,2.7,6,2.7l6.2,2l3.7,4.1c-2.8-0.8-6.9-2.8-7.4-2.8c1.9,1,3,2.9,3,3    l0.3,0.5l-0.9-0.3c-1.8-0.5-3.4-1-5.3-1.3l-0.1-0.5c2,0.3,3.6,0.8,5.5,1.3c-0.3-0.4-1.2-1.7-2.5-2.8c1-0.4,6.8,2.5,7.5,2.8    l-2.1-1.6l-1.8-2l-6.1-1.9c-0.1,0-0.9-0.3-6.1-2.7c-1.7-0.4-3-0.2-3.3,0.9c-0.2,1,0.4,2.4,1,2.7c1.3,0.8,2.8,1.7,3.1,1.7    c0.8,0.3,4,3.4,4.4,3.7c0.8-0.1,1.6,0,2.5,0.1c-0.3-0.4-0.9-0.8-2-1.6l0-0.1c1.9,0.9,2.5,1.3,2.7,1.9L267.9,260.2L267.9,260.2z"/></g><path d="M239.9,229.1c0,0,6.1-1.5,6.9-1.3L239.9,229.1z"/><g><path class="st5" d="M240,229.3l-0.1-0.5c1-0.3,6.2-1.5,7-1.3C246.3,227.9,242.5,228.7,240,229.3L240,229.3z"/></g></g></svg>